<svg xmlns="http://www.w3.org/2000/svg" width="125" height="30"><g fill="none" fill-rule="evenodd"><path fill="#000" d="M36.32 27.97h-2.1V25h-6.48v2.97h-2.1v-4.89h.93c.34-.8.61-1.685.81-2.655.2-.97.355-1.97.465-3 .11-1.03.18-2.08.21-3.15.03-1.07.045-2.105.045-3.105V9.88h7.02v13.2h1.2v4.89zm10.17-3.99c-.48.38-1.03.68-1.65.9-.62.22-1.31.33-2.07.33-1.56 0-2.79-.605-3.69-1.815-.9-1.21-1.35-2.985-1.35-5.325 0-1.22.085-2.34.255-3.36.17-1.02.44-1.905.81-2.655.37-.75.845-1.335 1.425-1.755.58-.42 1.27-.63 2.07-.63.62 0 1.19.125 1.71.375s.96.655 1.32 1.215c.36.56.64 1.285.84 2.175.2.89.3 1.975.3 3.255v1.29h-6.3c0 1.72.235 3.02.705 3.9.47.88 1.175 1.32 2.115 1.32.66 0 1.245-.115 1.755-.345.51-.23.915-.455 1.215-.675l.54 1.8zm-22.2-14.1V25h-2.31v-6.78H18.5V25h-2.34V9.88h2.34v6.42h3.48V9.88h2.31zm26.91 7.59V25h-2.34V9.88h2.34v6.99l3.63-6.99h2.37l-3.75 7.11L57.74 25h-2.55l-3.99-7.53zm12.03 7.74c-1.62 0-2.89-.645-3.81-1.935-.92-1.29-1.38-3.235-1.38-5.835 0-1.18.115-2.25.345-3.21.23-.96.57-1.775 1.02-2.445a4.81 4.81 0 0 1 1.68-1.56c.67-.37 1.445-.555 2.325-.555.68 0 1.23.075 1.65.225.42.15.8.335 1.14.555l-.33 2.22a5.086 5.086 0 0 0-1.125-.735 3.07 3.07 0 0 0-1.365-.315c-.84 0-1.53.47-2.07 1.41-.54.94-.81 2.37-.81 4.29 0 1.9.225 3.365.675 4.395.45 1.03 1.155 1.545 2.115 1.545.58 0 1.08-.095 1.5-.285.42-.19.77-.405 1.05-.645l.54 1.74c-.4.34-.85.615-1.35.825-.5.21-1.1.315-1.8.315zM32.81 11.77H30.2v.27c0 .8-.015 1.675-.045 2.625s-.095 1.915-.195 2.895-.24 1.945-.42 2.895-.43 1.825-.75 2.625h4.02V11.77zm9.48-.18c-.72 0-1.23.405-1.53 1.215-.3.81-.49 1.895-.57 3.255h3.87c0-.64-.03-1.235-.09-1.785a7.163 7.163 0 0 0-.285-1.425c-.13-.4-.31-.71-.54-.93-.23-.22-.515-.33-.855-.33zm32.79 2.1V25h-1.5V3.55h1.5v10.02l6.27-10.02h1.44l-6.18 9.9L83.33 25h-1.68l-6.57-11.31zm13.2 10.47c.7 0 1.295-.29 1.785-.87.49-.58.875-1.28 1.155-2.1v-4.17H89.6c-1.26 0-2.19.3-2.79.9-.6.6-.9 1.56-.9 2.88 0 1.08.215 1.91.645 2.49.43.58 1.005.87 1.725.87zm3.36.84c-.06-.2-.125-.455-.195-.765a9.148 9.148 0 0 1-.165-1.275c-.36.72-.81 1.29-1.35 1.71-.54.42-1.19.63-1.95.63-1.02 0-1.85-.385-2.49-1.155-.64-.77-.96-1.845-.96-3.225 0-1.62.43-2.845 1.29-3.675.86-.83 2.11-1.245 3.75-1.245h1.65v-1.89c0-1.16-.21-2-.63-2.52-.42-.52-1.05-.78-1.89-.78-.64 0-1.24.145-1.8.435-.56.29-1.02.695-1.38 1.215l-.39-1.35c.3-.4.755-.755 1.365-1.065.61-.31 1.345-.465 2.205-.465 1.26 0 2.225.355 2.895 1.065.67.71 1.005 1.815 1.005 3.315v8.25c0 .52.03 1.045.09 1.575s.14.935.24 1.215h-1.29zm8.43-.93c.48 0 .905-.08 1.275-.24.37-.16.685-.35.945-.57.3-.22.56-.49.78-.81l.45 1.17c-.22.32-.5.6-.84.84-.28.22-.645.415-1.095.585-.45.17-.965.255-1.545.255-1.52 0-2.695-.685-3.525-2.055-.83-1.37-1.245-3.295-1.245-5.775 0-2.5.41-4.44 1.23-5.82.82-1.38 2.01-2.07 3.57-2.07.78 0 1.44.135 1.98.405s.98.605 1.32 1.005l-.39 1.5c-.34-.46-.75-.86-1.23-1.2-.48-.34-1.04-.51-1.68-.51-1.16 0-2.015.58-2.565 1.74-.55 1.16-.825 2.81-.825 4.95 0 2.08.27 3.7.81 4.86.54 1.16 1.4 1.74 2.58 1.74zm9.96 0c.48 0 .905-.08 1.275-.24.37-.16.685-.35.945-.57.3-.22.56-.49.78-.81l.45 1.17c-.22.32-.5.6-.84.84-.28.22-.645.415-1.095.585-.45.17-.965.255-1.545.255-1.52 0-2.695-.685-3.525-2.055-.83-1.37-1.245-3.295-1.245-5.775 0-2.5.41-4.44 1.23-5.82.82-1.38 2.01-2.07 3.57-2.07.78 0 1.44.135 1.98.405s.98.605 1.32 1.005l-.39 1.5c-.34-.46-.75-.86-1.23-1.2-.48-.34-1.04-.51-1.68-.51-1.16 0-2.015.58-2.565 1.74-.55 1.16-.825 2.81-.825 4.95 0 2.08.27 3.7.81 4.86.54 1.16 1.4 1.74 2.58 1.74zm8.7.09c.7 0 1.295-.29 1.785-.87.49-.58.875-1.28 1.155-2.1v-4.17h-1.62c-1.26 0-2.19.3-2.79.9-.6.6-.9 1.56-.9 2.88 0 1.08.215 1.91.645 2.49.43.58 1.005.87 1.725.87zm3.36.84c-.06-.2-.125-.455-.195-.765a9.148 9.148 0 0 1-.165-1.275c-.36.72-.81 1.29-1.35 1.71-.54.42-1.19.63-1.95.63-1.02 0-1.85-.385-2.49-1.155-.64-.77-.96-1.845-.96-3.225 0-1.62.43-2.845 1.29-3.675.86-.83 2.11-1.245 3.75-1.245h1.65v-1.89c0-1.16-.21-2-.63-2.52-.42-.52-1.05-.78-1.89-.78-.64 0-1.24.145-1.8.435-.56.29-1.02.695-1.38 1.215l-.39-1.35c.3-.4.755-.755 1.365-1.065.61-.31 1.345-.465 2.205-.465 1.26 0 2.225.355 2.895 1.065.67.71 1.005 1.815 1.005 3.315v8.25c0 .52.03 1.045.09 1.575s.14.935.24 1.215h-1.29z"/><path fill="red" d="M8.93 16.78L5.27 25H2.6l4.02-8.79a5.716 5.716 0 0 1-2.28-2.115c-.58-.93-.87-2.195-.87-3.795 0-1.12.165-2.105.495-2.955.33-.85.78-1.555 1.35-2.115A5.55 5.55 0 0 1 7.31 3.97c.76-.28 1.56-.42 2.4-.42h3.45V25h-2.31v-8.22H8.93zM10.85 5.5H9.62c-.46 0-.91.085-1.35.255-.44.17-.83.44-1.17.81-.34.37-.615.86-.825 1.47-.21.61-.315 1.365-.315 2.265 0 .86.095 1.58.285 2.16.19.58.45 1.05.78 1.41.33.36.72.615 1.17.765.45.15.925.225 1.425.225h1.23V5.5z"/></g></svg>