<?xml version="1.0" encoding="UTF-8"?>
<svg width="177px" height="60px" viewBox="0 0 177 60" version="1.1" xmlns="http://www.w3.org/2000/svg" xmlns:xlink="http://www.w3.org/1999/xlink">
    <!-- Generator: Sketch 51.1 (57501) - http://www.bohemiancoding.com/sketch -->
    <title>app_store</title>
    <desc>Created with Sketch.</desc>
    <defs></defs>
    <g id="Portal_glavnaja" stroke="none" stroke-width="1" fill="none" fill-rule="evenodd">
        <g id="Pravjizn-Doroga-Home" transform="translate(-383.000000, -3824.000000)">
            <g id="app_store" transform="translate(383.000000, 3824.000000)">
                <rect id="bg" fill="#000000" x="0" y="0" width="177" height="60" rx="12"></rect>
                <path d="M68.5496495,43.8684632 L65.5366693,43.8684632 L63.8862302,38.6838947 L58.1494947,38.6838947 L56.577332,43.8684632 L53.643955,43.8684632 L59.3276217,26.2178526 L62.8381217,26.2178526 L68.5496495,43.8684632 L68.5496495,43.8684632 Z M63.3887103,36.5087368 L58.6483413,36.5087368 L60.1143664,31.8997895 C60.4991151,30.4342105 60.7790529,29.3254105 60.9528532,28.5747158 L61.005922,28.5747158 C61.4424127,30.3201474 61.7382712,31.4289474 61.8961508,31.8997895 L63.3887103,36.5087368 Z M83.166119,37.3482947 C83.166119,39.5128421 82.5810357,41.2237895 81.410869,42.4798105 C80.3627606,43.5978947 79.0612487,44.1562737 77.5076601,44.1562737 C75.8306865,44.1562737 74.6260251,43.5541263 73.8923492,42.3498316 L73.8392804,42.3498316 L73.8392804,49.0543579 L71.0107143,49.0543579 L71.0107143,35.3309684 C71.0107143,33.9701684 70.9748929,32.5735579 70.9059034,31.1411368 L73.3935026,31.1411368 L73.5513823,33.1584632 L73.6044511,33.1584632 C74.5477487,31.6385053 75.9792791,30.8798526 77.900369,30.8798526 C79.4022156,30.8798526 80.6559656,31.4727158 81.6589656,32.6597684 C82.664619,33.8481474 83.166119,35.4105474 83.166119,37.3482947 Z M80.2844841,37.4517474 C80.2844841,36.2129684 80.005873,35.1917053 79.4459974,34.3879579 C78.8343796,33.5497263 78.0131402,33.1306105 76.9836058,33.1306105 C76.2857513,33.1306105 75.6515794,33.3640421 75.0850701,33.8242737 C74.5172341,34.2884842 74.1457526,34.8946105 73.9719524,35.6453053 C73.8843889,35.9954526 73.8406071,36.2819368 73.8406071,36.5074105 L73.8406071,38.6295158 C73.8406071,39.5552842 74.1245251,40.3364842 74.6923611,40.9744421 C75.2601971,41.6124 75.9978532,41.9307158 76.9053294,41.9307158 C77.9706852,41.9307158 78.7998849,41.5195579 79.3929286,40.6998947 C79.9872989,39.8789053 80.2844841,38.7966316 80.2844841,37.4517474 Z M97.809123,37.3482947 C97.809123,39.5128421 97.2240397,41.2237895 96.0525463,42.4798105 C95.0057646,43.5978947 93.7042526,44.1562737 92.150664,44.1562737 C90.4736905,44.1562737 89.2690291,43.5541263 88.5366799,42.3498316 L88.4836111,42.3498316 L88.4836111,49.0543579 L85.655045,49.0543579 L85.655045,35.3309684 C85.655045,33.9701684 85.6192235,32.5735579 85.5502341,31.1411368 L88.0378333,31.1411368 L88.195713,33.1584632 L88.2487817,33.1584632 C89.1907526,31.6385053 90.6222831,30.8798526 92.5446997,30.8798526 C94.0452196,30.8798526 95.2989696,31.4727158 96.304623,32.6597684 C97.3062963,33.8481474 97.809123,35.4105474 97.809123,37.3482947 Z M94.9274881,37.4517474 C94.9274881,36.2129684 94.6475503,35.1917053 94.0876746,34.3879579 C93.4760569,33.5497263 92.6574709,33.1306105 91.6266098,33.1306105 C90.9274286,33.1306105 90.2945833,33.3640421 89.7267474,33.8242737 C89.1589114,34.2884842 88.7887566,34.8946105 88.6149563,35.6453053 C88.5287196,35.9954526 88.4836111,36.2819368 88.4836111,36.5074105 L88.4836111,38.6295158 C88.4836111,39.5552842 88.7675291,40.3364842 89.3327116,40.9744421 C89.9005476,41.6110737 90.6382037,41.9307158 91.5483333,41.9307158 C92.6136892,41.9307158 93.4428889,41.5195579 94.0359325,40.6998947 C94.6303029,39.8789053 94.9274881,38.7966316 94.9274881,37.4517474 Z M114.180843,38.9186526 C114.180843,40.4200421 113.659442,41.6415789 112.61266,42.5845895 C111.462394,43.6151368 109.861044,44.1297474 107.803302,44.1297474 C105.903439,44.1297474 104.380365,43.7636842 103.227446,43.0302316 L103.882845,40.6733684 C105.124655,41.4240632 106.487196,41.8007368 107.971795,41.8007368 C109.037151,41.8007368 109.866351,41.5593474 110.462048,41.0792211 C111.055091,40.5990947 111.35095,39.9545053 111.35095,39.1507579 C111.35095,38.4345474 111.106833,37.8310737 110.617274,37.3416632 C110.130368,36.8522526 109.317089,36.3973263 108.181417,35.9768842 C105.09016,34.8243158 103.545858,33.1359158 103.545858,30.9156632 C103.545858,29.4646737 104.08716,28.2749684 105.17109,27.3492 C106.25104,26.4221053 107.691857,25.9592211 109.493542,25.9592211 C111.1002,25.9592211 112.43488,26.2390737 113.500235,26.7974526 L112.793094,29.1025895 C111.798054,28.5614526 110.672996,28.2908842 109.413939,28.2908842 C108.418899,28.2908842 107.641442,28.5362526 107.08422,29.0243368 C106.613234,29.4606947 106.377078,29.9925474 106.377078,30.6225474 C106.377078,31.3201895 106.646402,31.8971368 107.187704,32.3507368 C107.658689,32.7698526 108.514423,33.2234526 109.756233,33.7128632 C111.275327,34.3242947 112.391098,35.0391789 113.108853,35.8588421 C113.823955,36.6758526 114.180843,37.6984421 114.180843,38.9186526 Z M123.532889,33.2632421 L120.415098,33.2632421 L120.415098,39.4425474 C120.415098,41.0142316 120.96436,41.7994105 122.065537,41.7994105 C122.571017,41.7994105 122.990261,41.7556421 123.32194,41.6681053 L123.400217,43.8154105 C122.842995,44.0236421 122.109319,44.1284211 121.200516,44.1284211 C120.083418,44.1284211 119.210437,43.7875579 118.580245,43.1071579 C117.952706,42.4254316 117.636947,41.2821474 117.636947,39.6759789 L117.636947,33.2605895 L115.77954,33.2605895 L115.77954,31.1384842 L117.636947,31.1384842 L117.636947,28.8081474 L120.415098,27.9699158 L120.415098,31.1384842 L123.532889,31.1384842 L123.532889,33.2632421 Z M137.600097,37.4000211 C137.600097,39.3563368 137.040221,40.9625053 135.923123,42.2185263 C134.75163,43.5116842 133.196714,44.1562737 131.258377,44.1562737 C129.390356,44.1562737 127.903103,43.5368842 126.793966,42.2981053 C125.684828,41.0593263 125.130259,39.4956 125.130259,37.6109053 C125.130259,35.6386737 125.700749,34.0232211 126.845708,32.7672 C127.988013,31.5098526 129.529661,30.8811789 131.467999,30.8811789 C133.33602,30.8811789 134.839193,31.5005684 135.973538,32.7406737 C137.058795,33.9436421 137.600097,35.4967579 137.600097,37.4000211 Z M134.665393,37.4915368 C134.665393,36.3177474 134.414643,35.3110737 133.906509,34.4715158 C133.313466,33.4555579 132.465692,32.9489053 131.367168,32.9489053 C130.230169,32.9489053 129.366475,33.4568842 128.773431,34.4715158 C128.265298,35.3124 128.014548,36.3349895 128.014548,37.5445895 C128.014548,38.7183789 128.265298,39.7250526 128.773431,40.5632842 C129.385049,41.5792421 130.239456,42.0858947 131.34196,42.0858947 C132.42191,42.0858947 133.269684,41.5686316 133.881302,40.5367579 C134.402702,39.6812842 134.665393,38.664 134.665393,37.4915368 Z M146.794263,33.6279789 C146.514325,33.5762526 146.215813,33.5497263 145.902708,33.5497263 C144.907668,33.5497263 144.138171,33.9250737 143.596869,34.6770947 C143.125884,35.3402526 142.889728,36.1784842 142.889728,37.1904632 L142.889728,43.8684632 L140.062488,43.8684632 L140.089022,35.1492632 C140.089022,33.6823579 140.053201,32.3467579 139.982885,31.1424632 L142.446603,31.1424632 L142.550087,33.5775789 L142.628364,33.5775789 C142.926876,32.7406737 143.397861,32.0669053 144.042647,31.5615789 C144.672839,31.1066526 145.353446,30.8798526 146.087122,30.8798526 C146.348485,30.8798526 146.584642,30.8984211 146.794263,30.9315789 L146.794263,33.6279789 Z M159.444534,36.9026526 C159.444534,37.4093053 159.411366,37.8363789 159.34105,38.1852 L150.855352,38.1852 C150.88852,39.4425474 151.298476,40.4041263 152.086548,41.0672842 C152.801649,41.6601474 153.726373,41.9572421 154.862045,41.9572421 C156.118448,41.9572421 157.264734,41.7569684 158.295595,41.3550947 L158.73872,43.3180421 C157.534058,43.8432632 156.111815,44.1045474 154.470663,44.1045474 C152.496504,44.1045474 150.946896,43.5236211 149.819184,42.3630947 C148.694126,41.2025684 148.13027,39.6441474 148.13027,37.6891579 C148.13027,35.7699789 148.654324,34.1717684 149.703759,32.8971789 C150.802283,31.5363789 152.286882,30.8559789 154.154903,30.8559789 C155.989757,30.8559789 157.378832,31.5363789 158.32213,32.8971789 C159.069073,33.9781263 159.444534,35.3150526 159.444534,36.9026526 Z M156.747313,36.1692 C156.765888,35.3309684 156.581474,34.6068 156.198052,33.9953684 C155.708492,33.2088632 154.956242,32.8162737 153.943955,32.8162737 C153.019231,32.8162737 152.266981,33.1995789 151.692512,33.9688421 C151.221526,34.5802737 150.941589,35.3137263 150.855352,36.1678737 L156.747313,36.1678737 L156.747313,36.1692 Z" id="app-store" fill="#FFFFFF"></path>
                <path d="M62.453373,15.3593053 C62.453373,16.9203789 61.985041,18.0954947 61.0497037,18.8846526 C60.1833558,19.6128 58.9521601,19.9775368 57.3574431,19.9775368 C56.5667183,19.9775368 55.8900913,19.9430526 55.323582,19.8740842 L55.323582,11.3445474 C56.0625648,11.2251789 56.8585966,11.1641684 57.7183108,11.1641684 C59.2374048,11.1641684 60.3823638,11.4944211 61.1545146,12.1549263 C62.0195357,12.9016421 62.453373,13.9693263 62.453373,15.3593053 Z M60.9873479,15.3977684 C60.9873479,14.3857895 60.7193505,13.6098947 60.1833558,13.0687579 C59.6473611,12.5289474 58.8645966,12.2583789 57.8337354,12.2583789 C57.395918,12.2583789 57.0231098,12.2875579 56.7139841,12.3485684 L56.7139841,18.8329263 C56.885131,18.8594526 57.1982368,18.8713895 57.6533016,18.8713895 C58.7173307,18.8713895 59.5385701,18.5756211 60.1170198,17.9840842 C60.6954696,17.3925474 60.9873479,16.5304421 60.9873479,15.3977684 Z M70.226623,16.7227579 C70.226623,17.6843368 69.9519921,18.4721684 69.4027302,19.0902316 C68.8269339,19.7255368 68.0640701,20.0425263 67.1114854,20.0425263 C66.1933955,20.0425263 65.462373,19.7388 64.9170913,19.1286947 C64.3731362,18.5199158 64.1011587,17.7519789 64.1011587,16.8262105 C64.1011587,15.858 64.3810966,15.0635368 64.9436257,14.4468 C65.5061548,13.8300632 66.2623849,13.5210316 67.2149696,13.5210316 C68.1330595,13.5210316 68.8707156,13.8247579 69.4292646,14.4335368 C69.9599524,15.0250737 70.226623,15.7890316 70.226623,16.7227579 Z M68.7844788,16.7678526 C68.7844788,16.1909053 68.6597672,15.6961895 68.4116706,15.2837053 C68.1197923,14.7850105 67.7045291,14.5356632 67.1645542,14.5356632 C66.6060053,14.5356632 66.181455,14.7850105 65.8895767,15.2837053 C65.6401534,15.6961895 65.5167685,16.1988632 65.5167685,16.7930526 C65.5167685,17.37 65.6414802,17.8647158 65.8895767,18.2772 C66.1907421,18.7758947 66.6099854,19.0252421 67.151287,19.0252421 C67.6819749,19.0252421 68.0985648,18.7719158 68.3984034,18.2639368 C68.655787,17.8434947 68.7844788,17.3448 68.7844788,16.7678526 Z M80.649332,13.6483579 L78.6924206,19.9006105 L77.4187698,19.9006105 L76.6081442,17.1856421 C76.4025026,16.5078947 76.235336,15.8341263 76.1053175,15.1656632 L76.0801098,15.1656632 C75.9593783,15.8526947 75.7922116,16.5251368 75.5772831,17.1856421 L74.7162421,19.9006105 L73.4279974,19.9006105 L71.5878373,13.6483579 L73.0167143,13.6483579 L73.7238558,16.6206316 C73.8950026,17.3235789 74.0356349,17.9933684 74.1484061,18.6273474 L74.1736138,18.6273474 C74.2770979,18.1047789 74.4482447,17.4389684 74.6897077,16.6338947 L75.5772831,13.6496842 L76.7103016,13.6496842 L77.5607288,16.5702316 C77.7663704,17.2824632 77.933537,17.9681684 78.0622288,18.6286737 L78.1007037,18.6286737 C78.1949008,17.9854105 78.3368598,17.2997053 78.525254,16.5702316 L79.2841376,13.6496842 L80.649332,13.6496842 L80.649332,13.6483579 Z M87.8573995,19.9006105 L86.4669974,19.9006105 L86.4669974,16.3195579 C86.4669974,15.2160632 86.047754,14.6643158 85.2066138,14.6643158 C84.794004,14.6643158 84.4609974,14.8155158 84.202287,15.1192421 C83.9462302,15.4229684 83.8162116,15.7810737 83.8162116,16.1909053 L83.8162116,19.8992842 L82.4258095,19.8992842 L82.4258095,15.4349053 C82.4258095,14.8858105 82.4085622,14.2902947 82.3753942,13.6457053 L83.5973029,13.6457053 L83.6623122,14.6232 L83.700787,14.6232 C83.8626468,14.3194737 84.1041098,14.0688 84.4211958,13.8685263 C84.7979841,13.6350947 85.219881,13.5170526 85.6815794,13.5170526 C86.265336,13.5170526 86.7509153,13.7053895 87.1369907,14.0833895 C87.6172632,14.5462737 87.8573995,15.2372842 87.8573995,16.1550947 L87.8573995,19.9006105 Z M90.3025437,10.7795368 L91.691619,10.7795368 L91.691619,19.9006105 L90.3025437,19.9006105 L90.3025437,10.7795368 Z M99.8774788,16.7227579 C99.8774788,17.6843368 99.6028479,18.4721684 99.053586,19.0902316 C98.4777897,19.7255368 97.7135992,20.0425263 96.7623413,20.0425263 C95.8429246,20.0425263 95.1119021,19.7388 94.5679471,19.1286947 C94.0239921,18.5199158 93.7520146,17.7519789 93.7520146,16.8262105 C93.7520146,15.858 94.0319524,15.0635368 94.5944815,14.4468 C95.1570106,13.8300632 95.9132407,13.5210316 96.8644987,13.5210316 C97.7839153,13.5210316 98.5202447,13.8247579 99.0801204,14.4335368 C99.6108082,15.0250737 99.8774788,15.7890316 99.8774788,16.7227579 Z M98.4340079,16.7678526 C98.4340079,16.1909053 98.3092963,15.6961895 98.0611997,15.2837053 C97.7706481,14.7850105 97.3540582,14.5356632 96.8154101,14.5356632 C96.2555344,14.5356632 95.8309841,14.7850105 95.5404325,15.2837053 C95.2910093,15.6961895 95.1676243,16.1988632 95.1676243,16.7930526 C95.1676243,17.37 95.292336,17.8647158 95.5404325,18.2772 C95.8415979,18.7758947 96.2608413,19.0252421 96.8021429,19.0252421 C97.3328307,19.0252421 97.7480939,18.7719158 98.0479325,18.2639368 C98.3066429,17.8434947 98.4340079,17.3448 98.4340079,16.7678526 Z M106.606601,19.9006105 L105.358157,19.9006105 L105.254673,19.1804211 L105.216198,19.1804211 C104.788995,19.7547158 104.18003,20.0425263 103.389306,20.0425263 C102.798915,20.0425263 102.321296,19.8528632 101.961755,19.4761895 C101.635382,19.134 101.472196,18.7082526 101.472196,18.2029263 C101.472196,17.4389684 101.790608,16.8567158 102.431414,16.4535158 C103.070893,16.0503158 103.970409,15.8526947 105.128635,15.8619789 L105.128635,15.7452632 C105.128635,14.9216211 104.696124,14.5104632 103.829776,14.5104632 C103.212852,14.5104632 102.668897,14.6656421 102.199238,14.9733474 L101.916647,14.0608421 C102.49775,13.7014105 103.215505,13.5210316 104.061952,13.5210316 C105.696471,13.5210316 106.516384,14.3831368 106.516384,16.1073474 L106.516384,18.4098316 C106.516384,19.0345263 106.546898,19.5318947 106.606601,19.9006105 Z M105.16313,17.7519789 L105.16313,16.7877474 C103.629442,16.7612211 102.862598,17.1816632 102.862598,18.0477474 C102.862598,18.3740211 102.950161,18.6180632 103.129269,18.7812 C103.308376,18.9443368 103.536571,19.0252421 103.808549,19.0252421 C104.113694,19.0252421 104.398939,18.9284211 104.658976,18.7361053 C104.92034,18.5424632 105.080873,18.2970947 105.140575,17.9960211 C105.155169,17.9283789 105.16313,17.8461474 105.16313,17.7519789 Z M114.507216,19.9006105 L113.273366,19.9006105 L113.208357,18.8965895 L113.169882,18.8965895 C112.775847,19.6605474 112.104526,20.0425263 111.161229,20.0425263 C110.407652,20.0425263 109.780114,19.7467579 109.282594,19.1552211 C108.785074,18.5636842 108.536978,17.7957474 108.536978,16.8527368 C108.536978,15.8407579 108.806302,15.0210947 109.347603,14.3950737 C109.871657,13.8114947 110.51379,13.5197053 111.27798,13.5197053 C112.117794,13.5197053 112.70553,13.8022105 113.039864,14.3685474 L113.066398,14.3685474 L113.066398,10.7795368 L114.458127,10.7795368 L114.458127,18.2161895 C114.458127,18.8249684 114.474048,19.386 114.507216,19.9006105 Z M113.066398,17.2638947 L113.066398,16.2214105 C113.066398,16.0410316 113.053131,15.8951368 113.027923,15.7837263 C112.949647,15.4494947 112.781153,15.1683158 112.525097,14.9415158 C112.266386,14.7147158 111.954607,14.6006526 111.595066,14.6006526 C111.076319,14.6006526 110.670343,14.8062316 110.371831,15.2187158 C110.075972,15.6312 109.926053,16.1577474 109.926053,16.8010105 C109.926053,17.4190737 110.068012,17.9204211 110.353257,18.3063789 C110.654422,18.7175368 111.060398,18.9231158 111.568532,18.9231158 C112.024923,18.9231158 112.389771,18.7520211 112.667056,18.4085053 C112.935053,18.0915158 113.066398,17.7095368 113.066398,17.2638947 Z M126.398603,16.7227579 C126.398603,17.6843368 126.123972,18.4721684 125.57471,19.0902316 C124.998914,19.7255368 124.237377,20.0425263 123.283466,20.0425263 C122.366702,20.0425263 121.63568,19.7388 121.089071,19.1286947 C120.545116,18.5199158 120.273139,17.7519789 120.273139,16.8262105 C120.273139,15.858 120.553077,15.0635368 121.115606,14.4468 C121.678135,13.8300632 122.434365,13.5210316 123.388276,13.5210316 C124.30504,13.5210316 125.044022,13.8247579 125.601245,14.4335368 C126.131933,15.0250737 126.398603,15.7890316 126.398603,16.7227579 Z M124.957786,16.7678526 C124.957786,16.1909053 124.833074,15.6961895 124.584978,15.2837053 C124.291772,14.7850105 123.877836,14.5356632 123.336534,14.5356632 C122.779312,14.5356632 122.354762,14.7850105 122.061557,15.2837053 C121.812134,15.6961895 121.688749,16.1988632 121.688749,16.7930526 C121.688749,17.37 121.81346,17.8647158 122.061557,18.2772 C122.362722,18.7758947 122.781966,19.0252421 123.323267,19.0252421 C123.853955,19.0252421 124.271872,18.7719158 124.57171,18.2639368 C124.827767,17.8434947 124.957786,17.3448 124.957786,16.7678526 Z M133.874668,19.9006105 L132.485593,19.9006105 L132.485593,16.3195579 C132.485593,15.2160632 132.066349,14.6643158 131.223882,14.6643158 C130.811272,14.6643158 130.478266,14.8155158 130.220882,15.1192421 C129.963499,15.4229684 129.834807,15.7810737 129.834807,16.1909053 L129.834807,19.8992842 L128.443078,19.8992842 L128.443078,15.4349053 C128.443078,14.8858105 128.427157,14.2902947 128.393989,13.6457053 L129.614571,13.6457053 L129.679581,14.6232 L129.718056,14.6232 C129.881242,14.3194737 130.122705,14.0688 130.438464,13.8685263 C130.816579,13.6350947 131.237149,13.5170526 131.700175,13.5170526 C132.282604,13.5170526 132.768184,13.7053895 133.154259,14.0833895 C133.635858,14.5462737 133.874668,15.2372842 133.874668,16.1550947 L133.874668,19.9006105 Z M143.232021,14.6895158 L141.700987,14.6895158 L141.700987,17.7267789 C141.700987,18.4986947 141.972964,18.8846526 142.511612,18.8846526 C142.761036,18.8846526 142.968004,18.8634316 143.13119,18.8196632 L143.167012,19.8740842 C142.892381,19.9775368 142.531513,20.0292632 142.087062,20.0292632 C141.5378,20.0292632 141.110597,19.8621474 140.801471,19.5279158 C140.491019,19.1936842 140.337119,18.6313263 140.337119,17.8421684 L140.337119,14.6895158 L139.423009,14.6895158 L139.423009,13.6483579 L140.337119,13.6483579 L140.337119,12.5024211 L141.69966,12.0912632 L141.69966,13.6470316 L143.230694,13.6470316 L143.230694,14.6895158 L143.232021,14.6895158 Z M150.592661,19.9006105 L149.200933,19.9006105 L149.200933,16.3460842 C149.200933,15.2253474 148.781689,14.6643158 147.941876,14.6643158 C147.29709,14.6643158 146.856619,14.9892632 146.615156,15.6391579 C146.574028,15.7757684 146.550147,15.9428842 146.550147,16.1391789 L146.550147,19.8992842 L145.161071,19.8992842 L145.161071,10.7795368 L146.550147,10.7795368 L146.550147,14.5476 L146.576681,14.5476 C147.014499,13.8618947 147.642037,13.5197053 148.455316,13.5197053 C149.031112,13.5197053 149.507405,13.7080421 149.88552,14.0860421 C150.356505,14.5568842 150.592661,15.2571789 150.592661,16.1829474 L150.592661,19.9006105 Z M158.185478,16.4787158 C158.185478,16.7280632 158.166903,16.9376211 158.133735,17.1087158 L153.963856,17.1087158 C153.98243,17.7267789 154.181438,18.1976211 154.567513,18.5238947 C154.920421,18.8156842 155.375485,18.9615789 155.932708,18.9615789 C156.549632,18.9615789 157.112161,18.8634316 157.618968,18.6658105 L157.83655,19.6313684 C157.243507,19.8886737 156.545652,20.0173263 155.73768,20.0173263 C154.769175,20.0173263 154.006311,19.7321684 153.454396,19.1618526 C152.899827,18.5915368 152.625196,17.8262526 152.625196,16.866 C152.625196,15.9229895 152.881253,15.1378105 153.397347,14.5117895 C153.935995,13.8433263 154.664364,13.5090947 155.58378,13.5090947 C156.483296,13.5090947 157.166557,13.8433263 157.628255,14.5117895 C158.001063,15.0423158 158.185478,15.6988421 158.185478,16.4787158 Z M156.858758,16.1192842 C156.869372,15.7068 156.777828,15.3513474 156.589434,15.0516 C156.347971,14.6656421 155.98047,14.472 155.48295,14.472 C155.029212,14.472 154.659057,14.6603368 154.376466,15.0383368 C154.145616,15.3394105 154.008964,15.6988421 153.963856,16.1192842 L156.858758,16.1192842 Z" id="download-on-the" fill="#FFFFFF"></path>
                <path d="M36.9721359,28.8739542 C37.0162915,34.0382251 41.4934022,35.745389 41.5482622,35.7641049 C41.5215013,35.8844219 40.8471248,38.2279287 39.1678737,40.6075307 C37.7655987,42.7023825 36.2964213,44.7504444 33.9628645,44.7878763 C31.6962101,44.8400137 30.9335224,43.4550319 28.3336939,43.4550319 C25.7097805,43.4550319 24.897585,44.7504444 22.7232559,44.8400137 C20.5007571,44.9215618 18.8027734,42.6034552 17.3496526,40.5273194 C14.444749,36.2881521 12.1834468,28.5811829 15.215465,23.3367007 C16.6846424,20.7645916 19.3634158,19.1082282 22.2268399,19.064112 C24.4520148,19.018659 26.5166238,20.5654002 27.8841095,20.5654002 C29.2248343,20.5654002 31.7778311,18.7151929 34.4097727,18.9919219 C35.5109868,19.0240064 38.6446967,19.4263997 40.6664882,22.3714913 C40.5032463,22.4690818 36.9333325,24.5652704 36.9721359,28.8739542 Z M32.6903802,16.2032423 C31.4700799,17.6416983 29.5178669,18.74193 27.6164998,18.6002233 C27.3676227,16.6591098 28.3310178,14.5950057 29.409485,13.3356883 C30.6284473,11.9065902 32.7452402,10.811706 34.4378718,10.7368421 C34.6599878,12.7541563 33.8598348,14.7420597 32.6903802,16.2032423 Z" id="apple" fill="#FFFFFF"></path>
            </g>
        </g>
    </g>
</svg>