<?xml version="1.0" encoding="UTF-8"?>
<svg width="22px" height="27px" viewBox="0 0 22 27" version="1.1" xmlns="http://www.w3.org/2000/svg" xmlns:xlink="http://www.w3.org/1999/xlink">
    <!-- Generator: Sketch 51.3 (57544) - http://www.bohemiancoding.com/sketch -->
    <title>apple_mini</title>
    <desc>Created with Sketch.</desc>
    <defs></defs>
    <g id="Portal_glavnaja" stroke="none" stroke-width="1" fill="none" fill-rule="evenodd">
        <g id="Pravjizn-Doroga-Home" transform="translate(-922.000000, -11621.000000)" fill="#FFFFFF" fill-rule="nonzero">
            <g id="13" transform="translate(0.000000, 11079.000000)">
                <g id="app" transform="translate(920.000000, 408.000000)">
                    <path d="M20.3263304,148.318211 C20.2923304,144.905526 23.1094883,143.268842 23.2353304,143.187526 C21.6524357,140.871211 19.1866462,140.553895 18.307962,140.517211 C16.2094883,140.304737 14.2133304,141.752684 13.1483304,141.752684 C12.0860146,141.752684 10.4425936,140.548632 8.70222517,140.580263 C6.41496202,140.614263 4.30596202,141.910211 3.12822517,143.958684 C0.75180412,148.082368 2.51964623,154.191316 4.83585675,157.535684 C5.96764623,159.172737 7.31722517,161.011368 9.08917254,160.945684 C10.795541,160.877579 11.4408041,159.841526 13.5038041,159.841526 C15.5667515,159.841526 16.1466989,160.945684 17.9524357,160.911789 C19.7886462,160.877684 20.951962,159.243421 22.075962,157.601368 C23.3756462,155.702211 23.9108041,153.863526 23.9423831,153.769158 C23.9015936,153.750526 20.3618041,152.394474 20.3263304,148.318211 Z M16.9332778,138.303211 C17.8737515,137.162211 18.508541,135.579211 18.3353831,134 C16.9806989,134.055158 15.3386462,134.902368 14.3666989,136.040789 C13.4945936,137.050684 12.7311725,138.662526 12.9357515,140.210158 C14.4480673,140.328158 15.9918041,139.441632 16.9332778,138.303211 Z" id="apple_mini"></path>
                </g>
            </g>
        </g>
    </g>
</svg>
