<?xml version="1.0" encoding="UTF-8"?>
<svg width="30px" height="108px" viewBox="0 0 30 108" version="1.1" xmlns="http://www.w3.org/2000/svg" xmlns:xlink="http://www.w3.org/1999/xlink">
    <!-- Generator: Sketch 51.1 (57501) - http://www.bohemiancoding.com/sketch -->
    <title>arrow-white-left</title>
    <desc>Created with Sketch.</desc>
    <defs></defs>
    <g id="Portal_glavnaja" stroke="none" stroke-width="1" fill="none" fill-rule="evenodd">
        <g id="Pravjizn-Doroga-Home" transform="translate(-215.000000, -2984.000000)" fill="#FFFFFF">
            <g id="Восстановление-святы" transform="translate(157.000000, 2531.000000)">
                <path d="M55.9611132,480.432023 C64.3849077,481.827295 72.6203476,484.424414 80.3646168,488.127029 C84.2324048,489.98377 87.9603758,492.144776 91.5296943,494.547745 C95.0866973,496.970273 98.4538969,499.676058 101.59,502.631775 C107.853513,508.533067 113.189017,515.520295 116.732256,523.337008 C116.889459,523.684015 116.735878,524.091875 116.389595,524.249078 C116.082433,524.388895 115.726008,524.281678 115.539102,524.015808 C110.709982,517.116238 105.413597,510.696971 99.3732119,504.978238 C96.3566415,502.121769 93.1560633,499.458726 89.797557,497.002873 C86.4513662,494.528185 82.9182697,492.30053 79.2504273,490.309044 C71.9219869,486.317377 63.9669055,483.371077 55.714079,481.848304 C47.4735679,480.32553 38.9396585,480.132104 30.6846587,481.627349 C30.3122962,481.695447 29.9551471,481.447688 29.8870497,481.074601 C29.8196767,480.702239 30.0667109,480.34509 30.4397978,480.277717 C38.902712,478.962133 47.5373187,479.033128 55.9611132,480.432023 Z M122.123108,520.493796 C122.122383,521.893415 122.225254,523.290861 122.388253,524.678164 C122.562843,526.064743 122.809877,527.440456 123.142395,528.793711 C123.47926,530.146965 123.886396,531.476314 124.337722,532.785377 C124.561574,533.434476 124.216741,534.14153 123.567642,534.365382 C123.294528,534.459559 123.011272,534.453039 122.758442,534.366106 L122.56719,534.300182 L119.008738,533.07298 C117.826451,532.659325 116.65503,532.223212 115.480712,531.793618 C114.307843,531.359679 113.152361,530.87865 112.01354,530.34184 C110.876168,529.796336 109.748939,529.217508 108.6659,528.466988 C108.339178,528.242411 108.257316,527.794707 108.482617,527.468709 C108.620985,527.267315 108.850633,527.159373 109.077383,527.158648 C110.407455,527.165893 111.681746,527.378154 112.936477,527.654166 C114.189035,527.938871 115.414788,528.309784 116.611564,528.759662 C117.806891,529.213886 118.993525,529.692017 120.156252,530.223032 C121.320427,530.751873 122.466492,531.322732 123.598069,531.920396 L121.827536,533.4352 C121.568186,532.000084 121.383454,530.556999 121.246535,529.116087 C121.105269,527.675175 120.995878,526.23716 120.933576,524.79987 C120.860408,523.363305 120.846643,521.927464 120.850266,520.492348 C120.862581,519.057231 120.925607,517.623563 120.992256,516.187722 C121.010367,515.809564 121.331294,515.516166 121.710176,515.533553 C122.089059,515.550939 122.381733,515.871866 122.365071,516.251473 C122.363622,516.269584 122.362173,516.290593 122.359275,516.308704 C122.178165,517.695283 122.115139,519.096351 122.123108,520.493796 Z" id="arrow-white-left" transform="translate(77.140978, 506.884228) scale(1, -1) rotate(-110.000000) translate(-77.140978, -506.884228) "></path>
            </g>
        </g>
    </g>
</svg>