<?xml version="1.0" encoding="UTF-8"?>
<svg width="107px" height="23px" viewBox="0 0 107 23" version="1.1" xmlns="http://www.w3.org/2000/svg" xmlns:xlink="http://www.w3.org/1999/xlink">
    <!-- Generator: Sketch 51.1 (57501) - http://www.bohemiancoding.com/sketch -->
    <title>arrow-orange-next</title>
    <desc>Created with Sketch.</desc>
    <defs></defs>
    <g id="Portal_glavnaja" stroke="none" stroke-width="1" fill="none" fill-rule="evenodd">
        <g id="Thanks_exit_leadmagnet" transform="translate(-662.000000, -998.000000)" fill="#F65500">
            <path d="M694.662939,990.075361 C702.950391,991.442806 711.052538,993.988127 718.671464,997.616897 C722.47665,999.436607 726.144283,1001.55451 729.655831,1003.90956 C733.155262,1006.28377 736.467963,1008.93559 739.553307,1011.83236 C745.715443,1017.61595 750.96459,1024.46383 754.45048,1032.12464 C754.60514,1032.46473 754.454044,1032.86446 754.113366,1033.01852 C753.811175,1033.15555 753.460519,1033.05047 753.276638,1032.78991 C748.525679,1026.02794 743.315018,1019.7367 737.372398,1014.13202 C734.404652,1011.33252 731.255876,1008.72259 727.951728,1006.31572 C724.659697,1003.89039 721.183785,1001.70716 717.575308,999.755393 C710.36548,995.843337 702.539154,992.955799 694.419903,991.463395 C686.312767,989.970992 677.916982,989.781424 669.795592,991.246848 C669.429256,991.313587 669.077887,991.07077 669.010892,990.705124 C668.94461,990.340188 669.187646,989.990162 669.554694,989.924133 C677.880633,988.634787 686.375486,988.704366 694.662939,990.075361 Z M759.75408,1029.33814 C759.753367,1030.70984 759.854572,1032.07942 760.014933,1033.43905 C760.186698,1034.79798 760.429734,1036.14625 760.75687,1037.47252 C761.088282,1038.79878 761.488828,1040.10162 761.93285,1041.38457 C762.153079,1042.02073 761.813827,1042.71368 761.175234,1042.93307 C760.90654,1043.02537 760.627868,1043.01898 760.379131,1042.93378 L760.190974,1042.86917 L756.690117,1041.66644 C755.526966,1041.26103 754.374505,1040.83362 753.219194,1040.41259 C752.065308,1039.98731 750.928527,1039.51587 749.808139,1038.98977 C748.689176,1038.45515 747.580191,1037.88786 746.514682,1037.15231 C746.193247,1036.93221 746.11271,1036.49344 746.334365,1036.17394 C746.470493,1035.97656 746.696424,1035.87077 746.919504,1035.87006 C748.228049,1035.87716 749.481715,1036.08519 750.716138,1036.3557 C751.948422,1036.63473 753.154337,1036.99824 754.331742,1037.43915 C755.507722,1037.88431 756.67515,1038.35291 757.819058,1038.87333 C758.964391,1039.39163 760.091907,1039.9511 761.205168,1040.53684 L759.463292,1042.02144 C759.20814,1040.61494 759.026397,1039.20064 758.891694,1037.78846 C758.752715,1036.37629 758.645095,1034.96695 758.583801,1033.55833 C758.511817,1032.15042 758.498275,1030.74321 758.501839,1029.33672 C758.513955,1027.93022 758.575961,1026.52515 758.641531,1025.11794 C758.659349,1024.74733 758.975082,1024.45978 759.347832,1024.47682 C759.720582,1024.49386 760.008519,1024.80839 759.992126,1025.18042 C759.990701,1025.19817 759.989276,1025.21876 759.986425,1025.23651 C759.808246,1026.59544 759.74624,1027.96856 759.75408,1029.33814 Z" id="arrow-orange-next" transform="translate(715.500000, 1016.000000) scale(-1, -1) rotate(-208.000000) translate(-715.500000, -1016.000000) "></path>
        </g>
    </g>
</svg>