<?xml version="1.0" encoding="UTF-8"?>
<svg width="20px" height="20px" viewBox="0 0 20 20" version="1.1" xmlns="http://www.w3.org/2000/svg" xmlns:xlink="http://www.w3.org/1999/xlink">
    <!-- Generator: Sketch 51.1 (57501) - http://www.bohemiancoding.com/sketch -->
    <title>calendar_icon</title>
    <desc>Created with Sketch.</desc>
    <defs></defs>
    <g id="Portal_glavnaja" stroke="none" stroke-width="1" fill="none" fill-rule="evenodd">
        <g id="Pravjizn-Doroga-Home" transform="translate(-697.000000, -8129.000000)" fill="#212121" fill-rule="nonzero">
            <g id="8" transform="translate(218.000000, 7827.000000)">
                <g id="inputs" transform="translate(459.000000, 130.000000)">
                    <g id="дата" transform="translate(0.000000, 116.000000)">
                        <path d="M39.21875,69.75 C39.6502344,69.75 40,69.4002344 40,68.96875 L40,60.6875 C40,58.964375 38.598125,57.5625 36.875,57.5625 L35.859375,57.5625 L35.859375,56.78125 C35.859375,56.3497656 35.5096094,56 35.078125,56 C34.6466406,56 34.296875,56.3497656 34.296875,56.78125 L34.296875,57.5625 L30.7421875,57.5625 L30.7421875,56.78125 C30.7421875,56.3497656 30.3924219,56 29.9609375,56 C29.5294531,56 29.1796875,56.3497656 29.1796875,56.78125 L29.1796875,57.5625 L25.6640625,57.5625 L25.6640625,56.78125 C25.6640625,56.3497656 25.3142969,56 24.8828125,56 C24.4513281,56 24.1015625,56.3497656 24.1015625,56.78125 L24.1015625,57.5625 L23.125,57.5625 C21.401875,57.5625 20,58.964375 20,60.6875 L20,72.875 C20,74.598125 21.401875,76 23.125,76 L36.875,76 C38.598125,76 40,74.598125 40,72.875 C40,72.4435156 39.6502344,72.09375 39.21875,72.09375 C38.7872656,72.09375 38.4375,72.4435156 38.4375,72.875 C38.4375,73.7365625 37.7365625,74.4375 36.875,74.4375 L33.90625,74.4375 L33.90625,69.75 L39.21875,69.75 Z M38.4375,68.1875 L33.90625,68.1875 L33.90625,63.5 L38.4375,63.5 L38.4375,68.1875 Z M26.09375,74.4375 L23.125,74.4375 C22.2634375,74.4375 21.5625,73.7365625 21.5625,72.875 L21.5625,69.75 L26.09375,69.75 L26.09375,74.4375 Z M26.09375,68.1875 L21.5625,68.1875 L21.5625,63.5 L26.09375,63.5 L26.09375,68.1875 Z M32.34375,74.4375 L27.65625,74.4375 L27.65625,69.75 L32.34375,69.75 L32.34375,74.4375 Z M32.34375,68.1875 L27.65625,68.1875 L27.65625,63.5 L32.34375,63.5 L32.34375,68.1875 Z M21.5625,61.9375 L21.5625,60.6875 C21.5625,59.8259375 22.2634375,59.125 23.125,59.125 L24.1015625,59.125 L24.1015625,59.90625 C24.1015625,60.3377344 24.4513281,60.6875 24.8828125,60.6875 C25.3142969,60.6875 25.6640625,60.3377344 25.6640625,59.90625 L25.6640625,59.125 L29.1796875,59.125 L29.1796875,59.90625 C29.1796875,60.3377344 29.5294531,60.6875 29.9609375,60.6875 C30.3924219,60.6875 30.7421875,60.3377344 30.7421875,59.90625 L30.7421875,59.125 L34.296875,59.125 L34.296875,59.90625 C34.296875,60.3377344 34.6466406,60.6875 35.078125,60.6875 C35.5096094,60.6875 35.859375,60.3377344 35.859375,59.90625 L35.859375,59.125 L36.875,59.125 C37.7365625,59.125 38.4375,59.8259375 38.4375,60.6875 L38.4375,61.9375 L21.5625,61.9375 Z" id="calendar_icon"></path>
                    </g>
                </g>
            </g>
        </g>
    </g>
</svg>