<?xml version="1.0" encoding="UTF-8"?>
<svg width="22px" height="16px" viewBox="0 0 22 16" version="1.1" xmlns="http://www.w3.org/2000/svg" xmlns:xlink="http://www.w3.org/1999/xlink">
    <!-- Generator: Sketch 51.1 (57501) - http://www.bohemiancoding.com/sketch -->
    <title>e-mail_icon</title>
    <desc>Created with Sketch.</desc>
    <defs></defs>
    <g id="Portal_glavnaja" stroke="none" stroke-width="1" fill="none" fill-rule="evenodd">
        <g id="pop_up_exit" transform="translate(-625.000000, -471.000000)" fill="#9B9B9B" fill-rule="nonzero">
            <g id="Group" transform="translate(600.000000, 449.000000)">
                <path d="M44.1589744,22 L26.8461538,22 C25.8294564,22 25,22.8285538 25,23.8461538 L25,36.1538462 C25,37.168 25.8257641,38 26.8461538,38 L44.1589744,38 C45.1731282,38 46.0051282,37.1742359 46.0051282,36.1538462 L46.0051282,23.8461538 C46.0051282,22.832 45.1793641,22 44.1589744,22 Z M43.904041,23.2307692 L35.5417026,31.5931487 L27.1070359,23.2307692 L43.904041,23.2307692 Z M26.2307692,35.8989949 L26.2307692,24.0951385 L32.1581128,29.9716513 L26.2307692,35.8989949 Z M27.1010462,36.7692308 L33.0321231,30.8381538 L35.110359,32.8985436 C35.3509333,33.1370667 35.739159,33.1362872 35.9787487,32.8966564 L38.0051282,30.8702769 L43.9040821,36.7692308 L27.1010462,36.7692308 Z M44.774359,35.8989538 L38.8754051,30 L44.774359,24.1010051 L44.774359,35.8989538 Z" id="e-mail_icon"></path>
            </g>
        </g>
    </g>
</svg>