<?xml version="1.0" encoding="UTF-8"?>
<svg width="13px" height="24px" viewBox="0 0 13 24" version="1.1" xmlns="http://www.w3.org/2000/svg" xmlns:xlink="http://www.w3.org/1999/xlink">
    <!-- Generator: Sketch 51.3 (57544) - http://www.bohemiancoding.com/sketch -->
    <title>fb_white</title>
    <desc>Created with Sketch.</desc>
    <defs></defs>
    <g id="Portal_glavnaja" stroke="none" stroke-width="1" fill="none" fill-rule="evenodd">
        <g id="Thanks_exit_leadmagnet" transform="translate(-909.000000, -3270.000000)" fill="#FFFFFF" fill-rule="nonzero">
            <g id="Group-16" transform="translate(798.000000, 3249.000000)">
                <path d="M123.030705,21.0048111 L120.03217,21 C116.663419,21 114.486383,23.2335659 114.486383,26.6906015 L114.486383,29.3143498 L111.47149,29.3143498 C111.210968,29.3143498 111,29.5255583 111,29.7860809 L111,33.5875932 C111,33.8481157 111.211208,34.0590837 111.47149,34.0590837 L114.486383,34.0590837 L114.486383,43.6515095 C114.486383,43.9120321 114.697351,44.123 114.957874,44.123 L118.891452,44.123 C119.151974,44.123 119.362942,43.9117915 119.362942,43.6515095 L119.362942,34.0590837 L122.888055,34.0590837 C123.148578,34.0590837 123.359546,33.8481157 123.359546,33.5875932 L123.360989,29.7860809 C123.360989,29.6609916 123.311194,29.5411945 123.22291,29.4526697 C123.134626,29.364145 123.014347,29.3143498 122.889258,29.3143498 L119.362942,29.3143498 L119.362942,27.0901656 C119.362942,26.0211331 119.617691,25.4784379 121.010272,25.4784379 L123.030224,25.4777163 C123.290506,25.4777163 123.501474,25.2665078 123.501474,25.0062258 L123.501474,21.4763016 C123.501474,21.2162602 123.290747,21.0052922 123.030705,21.0048111 Z" id="fb_white"></path>
            </g>
        </g>
    </g>
</svg>