<?xml version="1.0" encoding="UTF-8"?>
<svg width="22px" height="24px" viewBox="0 0 22 24" version="1.1" xmlns="http://www.w3.org/2000/svg" xmlns:xlink="http://www.w3.org/1999/xlink">
    <!-- Generator: Sketch 51.1 (57501) - http://www.bohemiancoding.com/sketch -->
    <title>google_mini</title>
    <desc>Created with Sketch.</desc>
    <defs></defs>
    <g id="Portal_glavnaja" stroke="none" stroke-width="1" fill="none" fill-rule="evenodd">
        <g id="Pravjizn-Doroga-Home" transform="translate(-974.000000, -11626.000000)" fill="#212121" fill-rule="nonzero">
            <g id="13" transform="translate(0.000000, 11079.000000)">
                <g id="app" transform="translate(920.000000, 408.000000)">
                    <g id="google_mini" transform="translate(54.000000, 139.000000)">
                        <path d="M4.37978378,0.374548857 C3.46355925,-0.131862786 2.38780042,-0.120153846 1.47743035,0.381866944 L12.1472017,10.2246944 L15.7316008,6.64029522 L4.37978378,0.374548857 Z" id="Shape"></path>
                        <path d="M0.410453222,1.38883576 C0.149929314,1.81474844 0.00064033264,2.30213306 0.00064033264,2.81879002 L0.00064033264,20.5958877 C0.00064033264,21.0964449 0.136756757,21.5735842 0.382644491,21.9907152 L11.1124241,11.2609356 L0.410453222,1.38883576 Z" id="Shape"></path>
                        <path d="M20.4839667,9.26309771 L17.0649563,7.3764948 L13.2229605,11.217027 L17.9314179,15.55958 L20.4854304,14.1501164 C21.4045821,13.6407775 21.9549023,12.7274802 21.9549023,11.7058753 C21.9534387,10.6842703 21.4045821,9.77097297 20.4839667,9.26309771 Z" id="Shape"></path>
                        <path d="M12.188183,12.2532682 L1.42913098,23.0123202 C1.89602495,23.2786985 2.40829106,23.4192058 2.92348441,23.4192058 C3.42111435,23.4192058 3.92167152,23.2933347 4.37978378,23.0401289 L16.5819626,16.3060249 L12.188183,12.2532682 Z" id="Shape"></path>
                    </g>
                </g>
            </g>
        </g>
    </g>
</svg>