<?xml version="1.0" encoding="UTF-8"?>
<svg width="177px" height="60px" viewBox="0 0 177 60" version="1.1" xmlns="http://www.w3.org/2000/svg" xmlns:xlink="http://www.w3.org/1999/xlink">
    <!-- Generator: Sketch 51.1 (57501) - http://www.bohemiancoding.com/sketch -->
    <title>google play</title>
    <desc>Created with Sketch.</desc>
    <defs>
        <linearGradient x1="50%" y1="0%" x2="50%" y2="100%" id="linearGradient-1">
            <stop stop-color="#1E79AF" offset="0%"></stop>
            <stop stop-color="#63FFD3" offset="100%"></stop>
        </linearGradient>
        <linearGradient x1="84.7178118%" y1="14.4459862%" x2="5.24419544%" y2="96.5617838%" id="linearGradient-2">
            <stop stop-color="#DC4057" offset="0%"></stop>
            <stop stop-color="#9E36BB" offset="100%"></stop>
        </linearGradient>
        <linearGradient x1="50%" y1="0%" x2="50%" y2="97.8256537%" id="linearGradient-3">
            <stop stop-color="#FF9676" offset="0%"></stop>
            <stop stop-color="#FFD074" offset="100%"></stop>
        </linearGradient>
        <linearGradient x1="17.4435371%" y1="0%" x2="100%" y2="100%" id="linearGradient-4">
            <stop stop-color="#51C6AD" offset="0%"></stop>
            <stop stop-color="#D5FFA1" offset="100%"></stop>
        </linearGradient>
    </defs>
    <g id="Portal_glavnaja" stroke="none" stroke-width="1" fill="none" fill-rule="evenodd">
        <g id="Pravjizn-Doroga-Home" transform="translate(-580.000000, -3824.000000)">
            <g id="google-play" transform="translate(580.000000, 3824.000000)">
                <rect id="bg" fill="#000000" x="0" y="0" width="177" height="60" rx="12"></rect>
                <g transform="translate(13.226790, 24.659255)">
                    <path d="M1.10740679,-0.180373314 C0.608749934,-0.0232240318 0.286044415,0.485382265 0.286044415,1.25487185 L0.289117801,25.4728922 C0.289117801,26.2338663 0.601834816,26.7347313 1.08666144,26.9019443 L14.5365664,13.3499476 L1.10740679,-0.180373314" id="left" fill="url(#linearGradient-1)"></path>
                    <path d="M1.08666144,26.9019443 C1.43549074,27.021161 1.87267988,26.9654233 2.34905469,26.7022176 L18.762472,17.6076868 L14.5365664,13.3499476 L1.08666144,26.9019443" id="bottom" fill="url(#linearGradient-2)"></path>
                    <path d="M18.7647771,17.6076868 L24.3614128,14.5072785 C25.4962605,13.876359 25.4962605,12.8498568 24.3614128,12.2204855 L18.7440317,9.10846527 L14.5365664,13.3476252 L18.7647771,17.6076868" id="right" fill="url(#linearGradient-3)"></path>
                    <path d="M18.7432634,9.10846527 L2.34905469,0.0263205694 C1.88420508,-0.229917915 1.45546775,-0.289526263 1.10817514,-0.180373314 L14.5365664,13.3476252 L18.7432634,9.10846527" id="top" fill="url(#linearGradient-4)"></path>
                </g>
                <path d="M61.3462446,43.9336536 L57.8702451,44.7356568 C56.461866,44.9593816 55.1971677,45.1560118 53.8579398,45.1560118 C47.1533485,45.1560118 44.5985965,40.1837466 44.5985965,36.292173 C44.5985965,31.5397619 48.2182767,27.133389 54.4172961,27.133389 C55.7288635,27.133389 56.9904884,27.3276967 58.1399347,27.6435435 C59.9616842,28.159117 60.8137804,28.7946814 61.3462446,29.16704 L59.32703,31.0992795 L58.4757021,31.2912648 L59.0826958,30.3166296 C58.2605651,29.5076591 56.7492276,28.0143539 53.8809902,28.0143539 C50.046173,28.0143539 47.1533485,30.9514198 47.1533485,35.2393502 C47.1533485,39.8446757 50.45647,44.1767318 55.7542189,44.1767318 C57.3108889,44.1767318 58.1122742,43.8616591 58.8398984,43.567488 L58.8398984,39.6194026 L55.1695073,39.8183551 L57.1149605,38.7655324 L62.2659553,38.7655324 L61.6359112,39.3763244 C61.4661066,39.5218617 61.4430562,39.5714063 61.3954187,39.7664881 C61.3700633,39.9894388 61.3462446,40.6985459 61.3462446,40.9478172 L61.3462446,43.9336536 Z M69.3178392,44.8401649 C65.1956604,44.8401649 62.9943477,41.6066056 62.9943477,38.6788293 C62.9943477,35.2579294 65.7673102,32.3309273 69.7089276,32.3309273 C73.5183894,32.3309273 75.9033368,35.3376653 75.9033368,38.4945853 C75.9033368,41.5779626 73.5468182,44.8401649 69.3178392,44.8401649 Z M72.5610297,42.726778 C73.1833903,41.8907129 73.3385963,40.8471797 73.3385963,39.8299671 C73.3385963,37.5292397 72.2475443,33.141446 69.0350877,33.141446 C68.1768447,33.141446 67.3247485,33.4781944 66.7023878,34.0278299 C65.6881705,34.9420826 65.5083774,36.090898 65.5083774,37.2180377 C65.5083774,39.7990018 66.7799908,44.0559668 69.9171495,44.0559668 C70.9290618,44.0559668 71.9624878,43.5612949 72.5610297,42.726778 Z M83.1165735,44.8401649 C78.995163,44.8401649 76.7900087,41.6066056 76.7900087,38.6788293 C76.7900087,35.2579294 79.5622027,32.3309273 83.5053568,32.3309273 C87.3171237,32.3309273 89.7043762,35.3376653 89.7043762,38.4945853 C89.7043762,41.5779626 87.3447842,44.8401649 83.1165735,44.8401649 Z M86.3589956,42.726778 C86.9859664,41.8907129 87.138099,40.8471797 87.138099,39.8299671 C87.138099,37.5292397 86.0501203,33.141446 82.8345904,33.141446 C81.9794207,33.141446 81.1181043,33.4781944 80.4972804,34.0278299 C79.4845997,34.9420826 79.3040383,36.090898 79.3040383,37.2180377 C79.3040383,39.7990018 80.5702733,44.0559668 83.7128104,44.0559668 C84.7270277,44.0559668 85.7619904,43.5612949 86.3589956,42.726778 Z M99.1919184,33.6128938 C99.7873869,34.1060174 101.029803,35.1526471 101.029803,37.1375277 C101.029803,39.0720896 99.947203,39.9840199 98.8553827,40.8471797 C98.5203836,41.1870247 98.1285269,41.5555127 98.1285269,42.1252756 C98.1285269,42.703554 98.5203836,43.0170784 98.8023668,43.250867 L99.7389811,43.9793275 C100.877671,44.9477696 101.915707,45.8357018 101.915707,47.6394349 C101.915707,50.0965375 99.5553463,52.5745417 95.095095,52.5745417 C91.3378808,52.5745417 89.5215097,50.7715827 89.5215097,48.8385691 C89.5215097,47.8979958 89.9863593,46.5657105 91.5199789,45.6530061 C93.1273597,44.6628882 95.3048536,44.5305112 96.4712036,44.4530977 C96.1070073,43.9793275 95.6913319,43.4831073 95.6913319,42.6733628 C95.6913319,42.2305579 95.8234875,41.9665781 95.951033,41.655376 C95.6675131,41.6824707 95.3816883,41.7103396 95.1219872,41.7103396 C92.3720751,41.7103396 90.8177102,39.6434008 90.8177102,37.6066532 C90.8177102,36.4051966 91.3616995,35.0721372 92.4788753,34.1060174 C93.9571739,32.8797886 95.7197607,32.6684499 97.1204563,32.6684499 L102.463538,32.6684499 L100.802373,33.6128938 L99.1919184,33.6128938 Z M97.354802,45.2102012 C97.14197,45.1823323 97.0144245,45.1823323 96.7577968,45.1823323 C96.5226828,45.1823323 95.1219872,45.2334252 94.0370819,45.6003649 C93.4631271,45.8117036 91.8042671,46.4364301 91.8042671,48.2920302 C91.8042671,50.1437597 93.5952827,51.4791415 96.3659401,51.4791415 C98.8553827,51.4791415 100.176939,50.2769108 100.176939,48.6581958 C100.176939,47.3259105 99.321769,46.6229964 97.354802,45.2102012 Z M98.1000981,40.2464514 C98.6994083,39.6434008 98.7516559,38.8104322 98.7516559,38.337436 C98.7516559,36.4586119 97.6398585,33.5323839 95.4846467,33.5323839 C94.8123435,33.5323839 94.0839511,33.8722289 93.6705807,34.3978661 C93.2318548,34.9420826 93.1004676,35.6480932 93.1004676,36.327009 C93.1004676,38.0765527 94.1131482,40.9780085 96.3405847,40.9780085 C96.9906058,40.9780085 97.6898011,40.6598392 98.1000981,40.2464514 Z M106.278378,42.5464047 C106.278378,43.5612949 106.458171,43.7192183 107.310267,43.7989542 C107.754372,43.8515953 108.196939,43.8748194 108.634897,43.9274605 L107.676,44.5026423 L103.106644,44.5026423 C103.705954,43.7192183 103.808912,43.6410308 103.808912,43.1192642 L103.808912,42.536341 L103.798924,27.0041085 L101.781246,27.0041085 L103.723626,26.0612128 L107.431666,26.0612128 C106.627976,26.5303383 106.387483,26.8159939 106.284525,27.7302466 L106.278378,42.5464047 Z M119.022941,42.7484538 L117.78283,43.9274605 C117.496236,44.086158 117.21118,44.270402 116.926892,44.4012307 C116.065575,44.7952651 115.18966,44.8943543 114.411325,44.8943543 C113.583048,44.8943543 112.284542,44.8401649 110.959913,43.8748194 C109.119723,42.5688546 108.315264,40.3238649 108.315264,38.3676273 C108.315264,34.3173561 111.587652,32.3309273 114.256888,32.3309273 C115.18966,32.3309273 116.147788,32.5662641 116.926892,33.0624843 C118.222324,33.9256441 118.557323,35.0473649 118.743263,35.6480932 L112.64797,38.1291939 L110.651806,38.285569 C111.297985,41.6066056 113.527727,43.5380709 115.991814,43.5380709 C117.222705,43.5380709 118.136269,43.1331986 118.974535,42.7159402 C118.974535,42.7159402 119.142803,42.6276888 119.022941,42.7484538 Z M115.345635,36.142765 C115.84045,35.9616176 116.097846,35.8052424 116.097846,35.4413993 C116.097846,34.3978661 114.926117,33.1925389 113.527727,33.1925389 C112.491996,33.1925389 110.547311,34.00538 110.547311,36.827874 C110.547311,37.2683564 110.599559,37.7374819 110.625682,38.2066073 L115.345635,36.142765 Z M126.496647,42.8599292 L126.496647,49.5136143 L125.18508,49.5136143 L125.18508,32.582521 L126.496647,32.582521 L126.496647,34.5108897 C127.351048,33.2645334 128.912328,32.2767379 130.725626,32.2767379 C133.978037,32.2767379 136.168592,34.7624834 136.168592,38.6974085 C136.168592,42.6060131 133.978037,45.1436256 130.725626,45.1436256 C129.01375,45.1436256 127.480131,44.2541452 126.496647,42.8599292 Z M134.759445,38.6974085 C134.759445,35.7316997 133.225057,33.469679 130.504342,33.469679 C128.814748,33.469679 127.198916,34.8073832 126.496647,35.9740037 L126.496647,41.3937186 C127.198916,42.5626616 128.814748,43.9491363 130.504342,43.9491363 C133.225057,43.9491363 134.759445,41.6677622 134.759445,38.6974085 Z M137.959608,27.9075234 L139.270407,27.9075234 L139.270407,44.8386167 L137.959608,44.8386167 L137.959608,27.9075234 Z M150.15634,44.8022324 C150.068748,44.3772326 150.002671,44.0025515 149.954265,43.6898012 C149.914311,43.3778251 149.89126,43.0588817 149.89126,42.7345194 C149.441778,43.3995008 148.804819,43.9530069 147.99114,44.3888446 C147.176692,44.8277788 146.402967,45.0429882 145.341881,45.0429882 C144.064121,45.0429882 143.072185,44.7263672 142.364538,44.0838356 C141.659196,43.4420782 141.30422,42.5727253 141.30422,41.4726803 C141.30422,40.3741836 141.818244,39.4823808 142.843218,38.8003684 C143.868192,38.1152595 145.192822,37.7746403 146.832473,37.7746403 L149.89126,37.7746403 L149.89126,36.251918 C149.89126,35.3748237 149.594679,34.68507 149.002284,34.1849791 C148.407583,33.6841142 147.573159,33.4309722 146.491327,33.4309722 C145.502465,33.4309722 144.700312,33.6624384 144.089476,34.1129847 C143.484019,34.5728205 143.178986,35.1425834 143.178986,35.8292406 L141.836684,35.8292406 L141.809024,35.7634392 C141.760618,34.8375744 142.180904,34.0255075 143.074491,33.3241417 C143.964236,32.6235501 145.129817,32.2713189 146.56432,32.2713189 C147.994213,32.2713189 149.151343,32.6181311 150.023416,33.3102073 C150.894721,33.9953162 151.33191,34.9854341 151.33191,36.2797868 L151.33191,42.3257764 C151.33191,42.7600658 151.352655,43.1796467 151.40644,43.5883896 C151.461761,43.9979067 151.55012,44.4066497 151.667677,44.8022324 L150.15634,44.8022324 Z M145.502465,43.8392092 C146.616568,43.8392092 147.417185,43.5883896 148.235474,43.0921695 C149.048384,42.5990459 149.601594,41.9557402 149.89126,41.176961 L149.89126,38.8235924 L146.817875,38.8235924 C145.643841,38.8235924 144.671883,39.0852499 143.907378,39.6132095 C143.141337,40.1396209 142.753322,40.7767335 142.753322,41.5175801 C142.753322,42.2166235 142.999193,42.7755485 143.487861,43.199 C143.978066,43.6270963 144.648064,43.8392092 145.502465,43.8392092 Z M153.987315,48.4189882 C154.267762,48.5451721 154.746442,48.6225856 155.049939,48.6225856 C155.852092,48.6225856 156.41068,48.2920302 156.91241,47.1246355 L157.869002,44.9408024 L152.70264,32.582521 L154.165572,32.582521 L158.597394,43.2918962 L162.986189,32.582521 L164.469866,32.582521 L158.168657,47.5341526 C157.514794,49.0746801 156.485978,49.8155267 155.072989,49.8155267 C154.648862,49.8155267 154.089506,49.7396615 153.76219,49.6382499 L153.987315,48.4189882 Z" id="logotype" fill="#FFFFFF"></path>
                <path d="M44.5008189,13.9475171 C44.5008189,11.3182633 46.4559241,9.62696711 48.8878651,9.62696711 C50.5172499,9.62696711 51.5821049,10.4037743 52.2468563,11.3550306 L51.0559412,12.0442221 C50.6049438,11.4176133 49.8149153,10.9302509 48.8878651,10.9302509 C47.2342078,10.9302509 46.0049266,12.181904 46.0049266,13.9475171 C46.0049266,15.6873149 47.2342078,16.9647833 48.8878651,16.9647833 C49.7405321,16.9647833 50.4921944,16.5767708 50.8680256,16.2137915 L50.8680256,14.9238065 L48.3617014,14.9238065 L48.3617014,13.6338215 L52.3220225,13.6338215 L52.3220225,16.7520023 C51.5077216,17.6664913 50.3293343,18.2798013 48.8878651,18.2798013 C46.4559241,18.2798013 44.5008189,16.5650366 44.5008189,13.9475171 Z M54.135408,18.1170864 L54.135408,9.76464894 L59.8629188,9.76464894 L59.8629188,11.0554162 L55.6011497,11.0554162 L55.6011497,13.2082595 L59.7752248,13.2082595 L59.7752248,14.4982444 L55.6011497,14.4982444 L55.6011497,16.8271015 L59.8629188,16.8271015 L59.8629188,18.1170864 L54.135408,18.1170864 Z M63.9203296,18.1170864 L63.9203296,11.0554162 L61.38895,11.0554162 L61.38895,9.76464894 L67.9182339,9.76464894 L67.9182339,11.0554162 L65.3868543,11.0554162 L65.3868543,18.1170864 L63.9203296,18.1170864 Z M73.0146614,9.76464894 L74.4804031,9.76464894 L74.4804031,18.1170864 L73.0146614,18.1170864 L73.0146614,9.76464894 Z M78.5644353,18.1170864 L78.5644353,11.0554162 L76.0330557,11.0554162 L76.0330557,9.76464894 L82.5623396,9.76464894 L82.5623396,11.0554162 L80.0309599,11.0554162 L80.0309599,18.1170864 L78.5644353,18.1170864 Z M87.2954636,13.9475171 C87.2954636,11.4551629 89.0618702,9.62696711 91.5697604,9.62696711 C94.062774,9.62696711 95.8432742,11.4551629 95.8432742,13.9475171 C95.8432742,16.439089 94.062774,18.2672848 91.5697604,18.2672848 C89.0618702,18.2672848 87.2954636,16.439089 87.2954636,13.9475171 Z M94.3391665,13.9475171 C94.3391665,12.2194536 93.2484731,10.9302509 91.5697604,10.9302509 C89.8769541,10.9302509 88.7995714,12.2194536 88.7995714,13.9475171 C88.7995714,15.6622818 89.8769541,16.9647833 91.5697604,16.9647833 C93.2484731,16.9647833 94.3391665,15.6622818 94.3391665,13.9475171 Z M103.383387,18.1170864 L99.0213967,12.1443544 L99.0213967,18.1170864 L97.5556551,18.1170864 L97.5556551,9.76464894 L99.0597628,9.76464894 L103.333277,15.5504153 L103.333277,9.76464894 L104.799801,9.76464894 L104.799801,18.1170864 L103.383387,18.1170864 Z" id="get-it-on" fill="#FFFFFF"></path>
            </g>
        </g>
    </g>
</svg>