<?xml version="1.0" encoding="UTF-8"?>
<svg width="11px" height="14px" viewBox="0 0 11 14" version="1.1" xmlns="http://www.w3.org/2000/svg" xmlns:xlink="http://www.w3.org/1999/xlink">
    <!-- Generator: Sketch 51.3 (57544) - http://www.bohemiancoding.com/sketch -->
    <title>user</title>
    <desc>Created with Sketch.</desc>
    <defs></defs>
    <g id="Portal_glavnaja" stroke="none" stroke-width="1" fill="none" fill-rule="evenodd" opacity="0.249999985">
        <g id="Pravjizn-Doroga-Home" transform="translate(-1093.000000, -65.000000)" fill="#FFFFFF" fill-rule="nonzero">
            <g id="1" transform="translate(-715.000000, -792.000000)">
                <g id="top" transform="translate(768.000000, 838.000000)">
                    <g id="menu" transform="translate(786.000000, 6.000000)">
                        <g id="-btn-2" transform="translate(224.000000, 0.000000)">
                            <path d="M39.5699333,23.0074333 L37.3409,21.8930333 C37.1306667,21.7878 37,21.5764 37,21.3412 L37,20.5523 C37.0534333,20.4869667 37.1096667,20.4125333 37.1677667,20.3304 C37.4568667,19.9220667 37.6885667,19.4675333 37.8570333,18.9773 C38.1862667,18.8263333 38.4,18.5008333 38.4,18.1333333 L38.4,17.2 C38.4,16.9753 38.316,16.7576 38.1666667,16.5875 L38.1666667,15.3464 C38.1797333,15.2180667 38.2310667,14.4541333 37.6785333,13.8239 C37.1992667,13.2772 36.4215667,13 35.3666667,13 C34.3117667,13 33.5340667,13.2772 33.0548,13.8236667 C32.5022667,14.4539 32.5536,15.2180667 32.5666667,15.3464 L32.5666667,16.5875 C32.4173333,16.7576 32.3333333,16.9753 32.3333333,17.2 L32.3333333,18.1333333 C32.3333333,18.4173 32.4623667,18.6821333 32.6826333,18.8587667 C32.8963667,19.7050667 33.3436667,20.3427667 33.5,20.5474 L33.5,21.3195 C33.5,21.5453667 33.3768,21.7525667 33.1787,21.8608333 L31.0971333,22.9962333 C30.4202333,23.3656 30,24.0735333 30,24.8444667 L30,25.6 C30,26.7074 33.5105,27 35.3666667,27 C37.2228333,27 40.7333333,26.7074 40.7333333,25.6 L40.7333333,24.8899667 C40.7333333,24.0877667 40.2874333,23.3663 39.5699333,23.0074333 Z" id="user"></path>
                        </g>
                    </g>
                </g>
            </g>
        </g>
    </g>
</svg>