<?xml version="1.0" encoding="UTF-8"?>
<svg width="30px" height="108px" viewBox="0 0 30 108" version="1.1" xmlns="http://www.w3.org/2000/svg" xmlns:xlink="http://www.w3.org/1999/xlink">
    <!-- Generator: Sketch 51.3 (57544) - http://www.bohemiancoding.com/sketch -->
    <title>arrow-white-right</title>
    <desc>Created with Sketch.</desc>
    <defs></defs>
    <g id="Portal_glavnaja" stroke="none" stroke-width="1" fill="none" fill-rule="evenodd">
        <g id="Pravjizn-Doroga-Home" transform="translate(-1194.000000, -2984.000000)" fill="#FFFFFF">
            <g id="Братство-трезвости" transform="translate(737.000000, 2531.000000)">
                <path d="M446.495496,480.337007 C454.919291,481.73228 463.154731,484.329399 470.899,488.032014 C474.766788,489.888754 478.494759,492.04976 482.064077,494.452729 C485.62108,496.875258 488.98828,499.581043 492.124383,502.53676 C498.387896,508.438052 503.7234,515.42528 507.266639,523.241993 C507.423843,523.588999 507.270261,523.996859 506.923979,524.154063 C506.616816,524.29388 506.260391,524.186663 506.073485,523.920793 C501.244365,517.021222 495.94798,510.601956 489.907595,504.883223 C486.891025,502.026754 483.690446,499.363711 480.33194,496.907858 C476.985749,494.433169 473.452653,492.205515 469.78481,490.214028 C462.45637,486.222361 454.501289,483.276062 446.248462,481.753288 C438.007951,480.230515 429.474042,480.037089 421.219042,481.532334 C420.846679,481.600431 420.48953,481.352673 420.421433,480.979586 C420.35406,480.607224 420.601094,480.250074 420.974181,480.182701 C429.437095,478.867118 438.071702,478.938113 446.495496,480.337007 Z M512.657491,520.398781 C512.656766,521.7984 512.759637,523.195846 512.922636,524.583149 C513.097226,525.969728 513.34426,527.345441 513.676779,528.698695 C514.013643,530.05195 514.420779,531.381298 514.872105,532.690362 C515.095958,533.339461 514.751124,534.046515 514.102025,534.270367 C513.828911,534.364544 513.545655,534.358024 513.292825,534.271091 L513.101573,534.205167 L509.543121,532.977965 C508.360834,532.564309 507.189414,532.128196 506.015096,531.698603 C504.842226,531.264663 503.686744,530.783635 502.547923,530.246824 C501.410552,529.701321 500.283322,529.122493 499.200283,528.371973 C498.873561,528.147396 498.791699,527.699692 499.017,527.373694 C499.155368,527.172299 499.385016,527.064358 499.611766,527.063633 C500.941839,527.070878 502.216129,527.283139 503.47086,527.55915 C504.723418,527.843856 505.949171,528.214769 507.145947,528.664647 C508.341274,529.118871 509.527908,529.597001 510.690635,530.128016 C511.854811,530.656858 513.000876,531.227717 514.132452,531.82538 L512.361919,533.340185 C512.102569,531.905069 511.917837,530.461983 511.780918,529.021071 C511.639652,527.580159 511.530261,526.142145 511.467959,524.704855 C511.394791,523.26829 511.381027,521.832449 511.384649,520.397332 C511.396964,518.962216 511.459991,517.528548 511.526639,516.092707 C511.54475,515.714549 511.865677,515.421151 512.24456,515.438537 C512.623442,515.455924 512.916116,515.776851 512.899454,516.156458 C512.898005,516.174569 512.896556,516.195578 512.893658,516.213689 C512.712548,517.600268 512.649522,519.001335 512.657491,520.398781 Z" id="arrow-white-right" transform="translate(467.675361, 506.789213) scale(-1, -1) rotate(-110.000000) translate(-467.675361, -506.789213) "></path>
            </g>
        </g>
    </g>
</svg>