<?xml version="1.0" encoding="UTF-8"?>
<svg width="80px" height="76px" viewBox="0 0 80 76" version="1.1" xmlns="http://www.w3.org/2000/svg" xmlns:xlink="http://www.w3.org/1999/xlink">
    <!-- Generator: Sketch 51.3 (57544) - http://www.bohemiancoding.com/sketch -->
    <title>arrow-orange-next</title>
    <desc>Created with Sketch.</desc>
    <defs></defs>
    <g id="Bratstvo_trezvosty" stroke="none" stroke-width="1" fill="none" fill-rule="evenodd">
        <g id="Thanks_pray" transform="translate(-907.000000, -860.000000)" fill="#F65500">
            <path d="M924.662939,872.075361 C932.950391,873.442806 941.052538,875.988127 948.671464,879.616897 C952.47665,881.436607 956.144283,883.554513 959.655831,885.909557 C963.155262,888.283771 966.467963,890.935591 969.553307,893.832359 C975.715443,899.615955 980.96459,906.463829 984.45048,914.124643 C984.60514,914.46473 984.454044,914.864455 984.113366,915.018523 C983.811175,915.155552 983.460519,915.050473 983.276638,914.789906 C978.525679,908.027941 973.315018,901.736701 967.372398,896.132023 C964.404652,893.332525 961.255876,890.722594 957.951728,888.31572 C954.659697,885.890387 951.183785,883.707162 947.575308,881.755393 C940.36548,877.843337 932.539154,874.955799 924.419903,873.463395 C916.312767,871.970992 907.916982,871.781424 899.795592,873.246848 C899.429256,873.313587 899.077887,873.07077 899.010892,872.705124 C898.94461,872.340188 899.187646,871.990162 899.554694,871.924133 C907.880633,870.634787 916.375486,870.704366 924.662939,872.075361 Z M989.75408,911.338137 C989.753367,912.709842 989.854572,914.079417 990.014933,915.439052 C990.186698,916.797977 990.429734,918.146252 990.75687,919.472517 C991.088282,920.798782 991.488828,922.101618 991.93285,923.384573 C992.153079,924.020726 991.813827,924.713679 991.175234,924.933066 C990.90654,925.025365 990.627868,925.018975 990.379131,924.933776 L990.190974,924.869167 L986.690117,923.66644 C985.526966,923.261035 984.374505,922.83362 983.219194,922.412594 C982.065308,921.987309 980.928527,921.515874 979.808139,920.98977 C978.689176,920.455146 977.580191,919.887862 976.514682,919.15231 C976.193247,918.932213 976.11271,918.493438 976.334365,918.173941 C976.470493,917.976564 976.696424,917.870775 976.919504,917.870065 C978.228049,917.877165 979.481715,918.085192 980.716138,918.355699 C981.948422,918.634726 983.154337,918.998242 984.331742,919.439147 C985.507722,919.884312 986.67515,920.352907 987.819058,920.873331 C988.964391,921.391626 990.091907,921.951099 991.205168,922.536843 L989.463292,924.021436 C989.20814,922.614942 989.026397,921.200638 988.891694,919.788463 C988.752715,918.376289 988.645095,916.966955 988.583801,915.55833 C988.511817,914.150416 988.498275,912.743212 988.501839,911.336717 C988.513955,909.930223 988.575961,908.525149 988.641531,907.117944 C988.659349,906.747328 988.975082,906.459782 989.347832,906.476821 C989.720582,906.493861 990.008519,906.808388 989.992126,907.180424 C989.990701,907.198173 989.989276,907.218763 989.986425,907.236513 C989.808246,908.595438 989.74624,909.968563 989.75408,911.338137 Z" id="arrow-orange-next" transform="translate(945.500000, 898.000000) scale(-1, -1) rotate(-165.000000) translate(-945.500000, -898.000000) "></path>
        </g>
    </g>
</svg>