<?xml version="1.0" encoding="UTF-8"?>
<svg width="109px" height="22px" viewBox="0 0 109 22" version="1.1" xmlns="http://www.w3.org/2000/svg" xmlns:xlink="http://www.w3.org/1999/xlink">
    <!-- Generator: Sketch 51.3 (57544) - http://www.bohemiancoding.com/sketch -->
    <title>arrow-blue</title>
    <desc>Created with Sketch.</desc>
    <defs></defs>
    <g id="Bratstvo_trezvosty" stroke="none" stroke-width="1" fill="none" fill-rule="evenodd">
        <g id="way_to_help" transform="translate(-537.000000, -2181.000000)" fill="#4695ED">
            <g id="Group-18-Copy-2" transform="translate(198.000000, 1706.000000)">
                <path d="M372.21483,452.095275 C380.680507,453.488043 388.956893,456.0805 396.739667,459.776469 C400.626686,461.629877 404.373192,463.787004 407.960257,466.18566 C411.534945,468.60384 414.918887,471.304769 418.070582,474.25518 C424.365237,480.14588 429.72727,487.120566 433.288125,494.923248 C433.44611,495.269632 433.291765,495.67676 432.943761,495.833681 C432.635071,495.973247 432.276874,495.866223 432.089039,495.60083 C427.235908,488.713644 421.91319,482.305899 415.842772,476.597431 C412.811204,473.74609 409.594712,471.087827 406.219508,468.636382 C402.85668,466.166135 399.306017,463.942479 395.619938,461.954567 C388.255061,457.970065 380.260427,455.029054 371.966567,453.509014 C363.685085,451.988973 355.108745,451.795895 346.812701,453.288456 C346.438487,453.356431 346.079562,453.109117 346.011126,452.7367 C345.943418,452.365006 346.191681,452.008498 346.566623,451.941246 C355.071615,450.628024 363.749152,450.698891 372.21483,452.095275 Z M438.70578,492.08514 C438.705052,493.482247 438.808434,494.877184 438.972244,496.261997 C439.147702,497.646087 439.395964,499.01933 439.730136,500.370156 C440.068676,501.720982 440.477835,503.047944 440.931406,504.354658 C441.156371,505.002592 440.809823,505.708376 440.157497,505.931827 C439.883025,506.025835 439.59836,506.019327 439.344273,505.93255 L439.15207,505.866744 L435.575926,504.641745 C434.387761,504.228832 433.210516,503.793501 432.030359,503.364679 C430.851658,502.931518 429.690431,502.451353 428.545948,501.915507 C427.402921,501.370982 426.270087,500.793193 425.181664,500.04402 C424.853317,499.819846 424.771048,499.372946 424.997469,499.047533 C425.136525,498.8465 425.367315,498.738752 425.595192,498.738029 C426.931878,498.74526 428.212505,498.95714 429.473474,499.232657 C430.732259,499.516851 431.964107,499.887099 433.166833,500.336169 C434.368103,500.789577 435.560637,501.26685 436.729145,501.796912 C437.899109,502.324804 439.050872,502.894638 440.188075,503.491229 L438.408739,505.003315 C438.1481,503.570774 437.962449,502.130279 437.824849,500.691953 C437.682881,499.253628 437.572946,497.818195 437.510334,496.383485 C437.436802,494.949498 437.422969,493.516234 437.42661,492.083694 C437.438986,490.651153 437.502326,489.220059 437.569306,487.786795 C437.587507,487.409316 437.91003,487.116444 438.290796,487.1338 C438.671562,487.151155 438.965691,487.471506 438.948946,487.850431 C438.94749,487.86851 438.946034,487.889481 438.943122,487.907559 C438.761111,489.29165 438.697772,490.690203 438.70578,492.08514 Z" id="arrow-blue" transform="translate(393.500000, 478.500000) scale(1, -1) rotate(-30.000000) translate(-393.500000, -478.500000) "></path>
            </g>
        </g>
    </g>
</svg>