<?xml version="1.0" encoding="UTF-8"?>
<svg width="76px" height="80px" viewBox="0 0 76 80" version="1.1" xmlns="http://www.w3.org/2000/svg" xmlns:xlink="http://www.w3.org/1999/xlink">
    <!-- Generator: Sketch 51.3 (57544) - http://www.bohemiancoding.com/sketch -->
    <title>arrow-orange-next copy</title>
    <desc>Created with Sketch.</desc>
    <defs></defs>
    <g id="Bratstvo_trezvosty" stroke="none" stroke-width="1" fill="none" fill-rule="evenodd">
        <g id="Thanks_pray" transform="translate(-907.000000, -1598.000000)" fill="#F65500">
            <path d="M924.662939,1611.07536 C932.950391,1612.44281 941.052538,1614.98813 948.671464,1618.6169 C952.47665,1620.43661 956.144283,1622.55451 959.655831,1624.90956 C963.155262,1627.28377 966.467963,1629.93559 969.553307,1632.83236 C975.715443,1638.61595 980.96459,1645.46383 984.45048,1653.12464 C984.60514,1653.46473 984.454044,1653.86446 984.113366,1654.01852 C983.811175,1654.15555 983.460519,1654.05047 983.276638,1653.78991 C978.525679,1647.02794 973.315018,1640.7367 967.372398,1635.13202 C964.404652,1632.33252 961.255876,1629.72259 957.951728,1627.31572 C954.659697,1624.89039 951.183785,1622.70716 947.575308,1620.75539 C940.36548,1616.84334 932.539154,1613.9558 924.419903,1612.4634 C916.312767,1610.97099 907.916982,1610.78142 899.795592,1612.24685 C899.429256,1612.31359 899.077887,1612.07077 899.010892,1611.70512 C898.94461,1611.34019 899.187646,1610.99016 899.554694,1610.92413 C907.880633,1609.63479 916.375486,1609.70437 924.662939,1611.07536 Z M989.75408,1650.33814 C989.753367,1651.70984 989.854572,1653.07942 990.014933,1654.43905 C990.186698,1655.79798 990.429734,1657.14625 990.75687,1658.47252 C991.088282,1659.79878 991.488828,1661.10162 991.93285,1662.38457 C992.153079,1663.02073 991.813827,1663.71368 991.175234,1663.93307 C990.90654,1664.02537 990.627868,1664.01898 990.379131,1663.93378 L990.190974,1663.86917 L986.690117,1662.66644 C985.526966,1662.26103 984.374505,1661.83362 983.219194,1661.41259 C982.065308,1660.98731 980.928527,1660.51587 979.808139,1659.98977 C978.689176,1659.45515 977.580191,1658.88786 976.514682,1658.15231 C976.193247,1657.93221 976.11271,1657.49344 976.334365,1657.17394 C976.470493,1656.97656 976.696424,1656.87077 976.919504,1656.87006 C978.228049,1656.87716 979.481715,1657.08519 980.716138,1657.3557 C981.948422,1657.63473 983.154337,1657.99824 984.331742,1658.43915 C985.507722,1658.88431 986.67515,1659.35291 987.819058,1659.87333 C988.964391,1660.39163 990.091907,1660.9511 991.205168,1661.53684 L989.463292,1663.02144 C989.20814,1661.61494 989.026397,1660.20064 988.891694,1658.78846 C988.752715,1657.37629 988.645095,1655.96695 988.583801,1654.55833 C988.511817,1653.15042 988.498275,1651.74321 988.501839,1650.33672 C988.513955,1648.93022 988.575961,1647.52515 988.641531,1646.11794 C988.659349,1645.74733 988.975082,1645.45978 989.347832,1645.47682 C989.720582,1645.49386 990.008519,1645.80839 989.992126,1646.18042 C989.990701,1646.19817 989.989276,1646.21876 989.986425,1646.23651 C989.808246,1647.59544 989.74624,1648.96856 989.75408,1650.33814 Z" id="arrow-orange-next-copy" transform="translate(945.500000, 1637.000000) scale(-1, -1) rotate(-75.000000) translate(-945.500000, -1637.000000) "></path>
        </g>
    </g>
</svg>