<?xml version="1.0" encoding="UTF-8"?>
<svg width="109px" height="22px" viewBox="0 0 109 22" version="1.1" xmlns="http://www.w3.org/2000/svg" xmlns:xlink="http://www.w3.org/1999/xlink">
    <!-- Generator: Sketch 51.3 (57544) - http://www.bohemiancoding.com/sketch -->
    <title>arrow-orange</title>
    <desc>Created with Sketch.</desc>
    <defs></defs>
    <g id="vostanovlenie_svjatin" stroke="none" stroke-width="1" fill="none" fill-rule="evenodd">
        <g id="Vostanovlenie_svatin" transform="translate(-537.000000, -4830.000000)" fill="#C5332E">
            <path d="M570.21483,4807.09527 C578.680507,4808.48804 586.956893,4811.0805 594.739667,4814.77647 C598.626686,4816.62988 602.373192,4818.787 605.960257,4821.18566 C609.534945,4823.60384 612.918887,4826.30477 616.070582,4829.25518 C622.365237,4835.14588 627.72727,4842.12057 631.288125,4849.92325 C631.44611,4850.26963 631.291765,4850.67676 630.943761,4850.83368 C630.635071,4850.97325 630.276874,4850.86622 630.089039,4850.60083 C625.235908,4843.71364 619.91319,4837.3059 613.842772,4831.59743 C610.811204,4828.74609 607.594712,4826.08783 604.219508,4823.63638 C600.85668,4821.16614 597.306017,4818.94248 593.619938,4816.95457 C586.255061,4812.97007 578.260427,4810.02905 569.966567,4808.50901 C561.685085,4806.98897 553.108745,4806.79589 544.812701,4808.28846 C544.438487,4808.35643 544.079562,4808.10912 544.011126,4807.7367 C543.943418,4807.36501 544.191681,4807.0085 544.566623,4806.94125 C553.071615,4805.62802 561.749152,4805.69889 570.21483,4807.09527 Z M636.70578,4847.08514 C636.705052,4848.48225 636.808434,4849.87718 636.972244,4851.262 C637.147702,4852.64609 637.395964,4854.01933 637.730136,4855.37016 C638.068676,4856.72098 638.477835,4858.04794 638.931406,4859.35466 C639.156371,4860.00259 638.809823,4860.70838 638.157497,4860.93183 C637.883025,4861.02583 637.59836,4861.01933 637.344273,4860.93255 L637.15207,4860.86674 L633.575926,4859.64174 C632.387761,4859.22883 631.210516,4858.7935 630.030359,4858.36468 C628.851658,4857.93152 627.690431,4857.45135 626.545948,4856.91551 C625.402921,4856.37098 624.270087,4855.79319 623.181664,4855.04402 C622.853317,4854.81985 622.771048,4854.37295 622.997469,4854.04753 C623.136525,4853.8465 623.367315,4853.73875 623.595192,4853.73803 C624.931878,4853.74526 626.212505,4853.95714 627.473474,4854.23266 C628.732259,4854.51685 629.964107,4854.8871 631.166833,4855.33617 C632.368103,4855.78958 633.560637,4856.26685 634.729145,4856.79691 C635.899109,4857.3248 637.050872,4857.89464 638.188075,4858.49123 L636.408739,4860.00331 C636.1481,4858.57077 635.962449,4857.13028 635.824849,4855.69195 C635.682881,4854.25363 635.572946,4852.81819 635.510334,4851.38348 C635.436802,4849.9495 635.422969,4848.51623 635.42661,4847.08369 C635.438986,4845.65115 635.502326,4844.22006 635.569306,4842.7868 C635.587507,4842.40932 635.91003,4842.11644 636.290796,4842.1338 C636.671562,4842.15115 636.965691,4842.47151 636.948946,4842.85043 C636.94749,4842.86851 636.946034,4842.88948 636.943122,4842.90756 C636.761111,4844.29165 636.697772,4845.6902 636.70578,4847.08514 Z" id="arrow-orange" transform="translate(591.500000, 4833.500000) scale(1, -1) rotate(-30.000000) translate(-591.500000, -4833.500000) "></path>
        </g>
    </g>
</svg>