<?xml version="1.0" encoding="UTF-8"?>
<svg width="11px" height="20px" viewBox="0 0 11 20" version="1.1" xmlns="http://www.w3.org/2000/svg" xmlns:xlink="http://www.w3.org/1999/xlink">
    <!-- Generator: Sketch 51.3 (57544) - http://www.bohemiancoding.com/sketch -->
    <title>fb_share</title>
    <desc>Created with Sketch.</desc>
    <defs></defs>
    <g id="Bratstvo_trezvosty" stroke="none" stroke-width="1" fill="none" fill-rule="evenodd">
        <g id="way_to_help" transform="translate(-873.000000, -2133.000000)" fill="#FFFFFF" fill-rule="nonzero">
            <g id="Group-18-Copy-2" transform="translate(198.000000, 1706.000000)">
                <g id="Group-7" transform="translate(472.000000, 347.000000)">
                    <path d="M213.405834,80.0041613 L210.812282,80 C207.898515,80 206.015511,81.9318998 206.015511,84.922027 L206.015511,87.191411 L203.407811,87.191411 C203.182475,87.191411 203,87.3740936 203,87.5994299 L203,90.8875087 C203,91.112845 203.182683,91.2953195 203.407811,91.2953195 L206.015511,91.2953195 L206.015511,99.5921892 C206.015511,99.8175255 206.197986,100 206.423322,100 L209.82563,100 C210.050966,100 210.23344,99.8173174 210.23344,99.5921892 L210.23344,91.2953195 L213.282451,91.2953195 C213.507787,91.2953195 213.690261,91.112845 213.690261,90.8875087 L213.69151,87.5994299 C213.69151,87.4912352 213.64844,87.3876179 213.57208,87.3110494 C213.495719,87.2344808 213.391686,87.191411 213.283491,87.191411 L210.23344,87.191411 L210.23344,85.2676259 C210.23344,84.3429772 210.453783,83.8735786 211.658282,83.8735786 L213.405418,83.8729544 C213.630546,83.8729544 213.813021,83.6902718 213.813021,83.4651436 L213.813021,80.4119722 C213.813021,80.187052 213.630754,80.0045775 213.405834,80.0041613 Z" id="fb_share"></path>
                </g>
            </g>
        </g>
    </g>
</svg>