
<svg width="11px" height="14px" viewBox="0 0 11 14" version="1.1" xmlns="http://www.w3.org/2000/svg" xmlns:xlink="http://www.w3.org/1999/xlink">
    <!-- Generator: Sketch 50.2 (55047) - http://www.bohemiancoding.com/sketch -->
    <desc>Created with Sketch.</desc>
    <defs></defs>
    <g id="Adaptive" stroke="none" stroke-width="1" fill="none" fill-rule="evenodd" opacity="0.249999985">
        <g id="Mobile_menu" transform="translate(-121.000000, -295.000000)" fill="#FFFFFF" fill-rule="nonzero">
            <g id="Group" transform="translate(79.000000, 277.000000)">
                <g id="-btn-2">
                    <g id="Group-2" transform="translate(42.000000, 17.000000)">
                        <path d="M9.80769565,11.0074333 L7.52328261,9.89303333 C7.30782609,9.7878 7.17391304,9.5764 7.17391304,9.3412 L7.17391304,8.5523 C7.22867391,8.48696667 7.28630435,8.41253333 7.34584783,8.3304 C7.64213043,7.92206667 7.87958696,7.46753333 8.05223913,6.9773 C8.38965217,6.82633333 8.60869565,6.50083333 8.60869565,6.13333333 L8.60869565,5.2 C8.60869565,4.9753 8.5226087,4.7576 8.36956522,4.5875 L8.36956522,3.3464 C8.38295652,3.21806667 8.43556522,2.45413333 7.86930435,1.8239 C7.37813043,1.2772 6.5811087,1 5.5,1 C4.4188913,1 3.62186957,1.2772 3.13069565,1.82366667 C2.56443478,2.4539 2.61704348,3.21806667 2.63043478,3.3464 L2.63043478,4.5875 C2.4773913,4.7576 2.39130435,4.9753 2.39130435,5.2 L2.39130435,6.13333333 C2.39130435,6.4173 2.52354348,6.68213333 2.74928261,6.85876667 C2.96832609,7.70506667 3.42673913,8.34276667 3.58695652,8.5474 L3.58695652,9.3195 C3.58695652,9.54536667 3.46069565,9.75256667 3.25767391,9.86083333 L1.1243913,10.9962333 C0.430673913,11.3656 0,12.0735333 0,12.8444667 L0,13.6 C0,14.7074 3.59771739,15 5.5,15 C7.40228261,15 11,14.7074 11,13.6 L11,12.8899667 C11,12.0877667 10.5430217,11.3663 9.80769565,11.0074333 Z" id="user"></path>
                    </g>
                </g>
            </g>
        </g>
    </g>
</svg>