<svg xmlns="http://www.w3.org/2000/svg" width="125" height="30" viewBox="0 0 125 30">
  <g fill="none" fill-rule="evenodd">
    <path fill="#000" d="M36.32,27.97 L34.22,27.97 L34.22,25 L27.74,25 L27.74,27.97 L25.64,27.97 L25.64,23.08 L26.57,23.08 C26.9100017,22.279996 27.179999,21.3950049 27.38,20.425 C27.580001,19.4549952 27.7349994,18.4550052 27.845,17.425 C27.9550005,16.3949949 28.0249998,15.3450054 28.055,14.275 C28.0850001,13.2049947 28.1,12.170005 28.1,11.17 L28.1,9.88 L35.12,9.88 L35.12,23.08 L36.32,23.08 L36.32,27.97 Z M46.49,23.98 C46.0099976,24.3600019 45.4600031,24.6599989 44.84,24.88 C44.2199969,25.1000011 43.5300038,25.21 42.77,25.21 C41.2099922,25.21 39.9800045,24.6050061 39.08,23.395 C38.1799955,22.184994 37.73,20.4100117 37.73,18.07 C37.73,16.8499939 37.8149992,15.7300051 37.985,14.71 C38.1550009,13.6899949 38.4249982,12.8050038 38.795,12.055 C39.1650019,11.3049963 39.6399971,10.7200021 40.22,10.3 C40.8000029,9.8799979 41.489996,9.67 42.29,9.67 C42.9100031,9.67 43.4799974,9.79499875 44,10.045 C44.5200026,10.2950013 44.9599982,10.6999972 45.32,11.26 C45.6800018,11.8200028 45.959999,12.5449956 46.16,13.435 C46.360001,14.3250045 46.46,15.4099936 46.46,16.69 L46.46,17.98 L40.16,17.98 C40.16,19.7000086 40.3949977,20.9999956 40.865,21.88 C41.3350024,22.7600044 42.0399953,23.2 42.98,23.2 C43.6400033,23.2 44.2249975,23.0850012 44.735,22.855 C45.2450026,22.6249989 45.6499985,22.4000011 45.95,22.18 L46.49,23.98 Z M24.29,9.88 L24.29,25 L21.98,25 L21.98,18.22 L18.5,18.22 L18.5,25 L16.16,25 L16.16,9.88 L18.5,9.88 L18.5,16.3 L21.98,16.3 L21.98,9.88 L24.29,9.88 Z M51.2,17.47 L51.2,25 L48.86,25 L48.86,9.88 L51.2,9.88 L51.2,16.87 L54.83,9.88 L57.2,9.88 L53.45,16.99 L57.74,25 L55.19,25 L51.2,17.47 Z M63.23,25.21 C61.6099919,25.21 60.3400046,24.5650065 59.42,23.275 C58.4999954,21.9849936 58.04,20.040013 58.04,17.44 C58.04,16.2599941 58.1549988,15.1900048 58.385,14.23 C58.6150011,13.2699952 58.9549977,12.4550034 59.405,11.785 C59.8550022,11.1149967 60.4149966,10.5950019 61.085,10.225 C61.7550033,9.85499815 62.5299956,9.67 63.41,9.67 C64.0900034,9.67 64.6399979,9.74499925 65.06,9.895 C65.4800021,10.0450008 65.8599983,10.2299989 66.2,10.45 L65.87,12.67 C65.5499984,12.3899986 65.1750021,12.1450011 64.745,11.935 C64.3149978,11.724999 63.8600024,11.62 63.38,11.62 C62.5399958,11.62 61.8500027,12.0899953 61.31,13.03 C60.7699973,13.9700047 60.5,15.3999904 60.5,17.32 C60.5,19.2200095 60.7249977,20.6849949 61.175,21.715 C61.6250022,22.7450052 62.3299952,23.26 63.29,23.26 C63.8700029,23.26 64.3699979,23.165001 64.79,22.975 C65.2100021,22.784999 65.5599986,22.5700012 65.84,22.33 L66.38,24.07 C65.979998,24.4100017 65.5300025,24.684999 65.03,24.895 C64.5299975,25.1050011 63.9300035,25.21 63.23,25.21 Z M32.81,11.77 L30.2,11.77 L30.2,12.04 C30.2,12.840004 30.1850001,13.7149953 30.155,14.665 C30.1249998,15.6150047 30.0600005,16.5799951 29.96,17.56 C29.8599995,18.5400049 29.7200009,19.5049953 29.54,20.455 C29.3599991,21.4050048 29.1100016,22.279996 28.79,23.08 L32.81,23.08 L32.81,11.77 Z M42.29,11.59 C41.5699964,11.59 41.0600015,11.994996 40.76,12.805 C40.4599985,13.615004 40.2700004,14.6999932 40.19,16.06 L44.06,16.06 C44.06,15.4199968 44.0300003,14.8250027 43.97,14.275 C43.9099997,13.7249973 43.8150007,13.250002 43.685,12.85 C43.5549994,12.449998 43.3750012,12.1400011 43.145,11.92 C42.9149989,11.6999989 42.6300017,11.59 42.29,11.59 Z M75.08,13.69 L75.08,25 L73.58,25 L73.58,3.55 L75.08,3.55 L75.08,13.57 L81.35,3.55 L82.79,3.55 L76.61,13.45 L83.33,25 L81.65,25 L75.08,13.69 Z M88.28,24.16 C88.9800035,24.16 89.5749975,23.8700029 90.065,23.29 C90.5550024,22.7099971 90.9399986,22.0100041 91.22,21.19 L91.22,17.02 L89.6,17.02 C88.3399937,17.02 87.410003,17.319997 86.81,17.92 C86.209997,18.520003 85.91,19.4799934 85.91,20.8 C85.91,21.8800054 86.1249978,22.7099971 86.555,23.29 C86.9850021,23.8700029 87.5599964,24.16 88.28,24.16 Z M91.64,25 C91.5799997,24.799999 91.5150004,24.5450015 91.445,24.235 C91.3749997,23.9249985 91.3200002,23.5000027 91.28,22.96 C90.9199982,23.6800036 90.4700027,24.2499979 89.93,24.67 C89.3899973,25.0900021 88.7400038,25.3 87.98,25.3 C86.9599949,25.3 86.1300032,24.9150038 85.49,24.145 C84.8499968,23.3749962 84.53,22.3000069 84.53,20.92 C84.53,19.2999919 84.9599957,18.0750041 85.82,17.245 C86.6800043,16.4149958 87.9299918,16 89.57,16 L91.22,16 L91.22,14.11 C91.22,12.9499942 91.0100021,12.1100026 90.59,11.59 C90.1699979,11.0699974 89.5400042,10.81 88.7,10.81 C88.0599968,10.81 87.4600028,10.9549985 86.9,11.245 C86.3399972,11.5350014 85.8800018,11.9399974 85.52,12.46 L85.13,11.11 C85.4300015,10.709998 85.884997,10.3550015 86.495,10.045 C87.1050031,9.73499845 87.8399957,9.58 88.7,9.58 C89.9600063,9.58 90.9249967,9.93499645 91.595,10.645 C92.2650034,11.3550036 92.6,12.4599925 92.6,13.96 L92.6,22.21 C92.6,22.7300026 92.6299997,23.2549973 92.69,23.785 C92.7500003,24.3150026 92.8299995,24.7199986 92.93,25 L91.64,25 Z M100.07,24.07 C100.550002,24.07 100.974998,23.9900008 101.345,23.83 C101.715002,23.6699992 102.029999,23.4800011 102.29,23.26 C102.590001,23.0399989 102.849999,22.7700016 103.07,22.45 L103.52,23.62 C103.299999,23.9400016 103.020002,24.2199988 102.68,24.46 C102.399999,24.6800011 102.035002,24.8749992 101.585,25.045 C101.134998,25.2150009 100.620003,25.3 100.04,25.3 C98.5199924,25.3 97.3450041,24.6150069 96.515,23.245 C95.6849959,21.8749932 95.27,19.9500124 95.27,17.47 C95.27,14.9699875 95.6799959,13.0300069 96.5,11.65 C97.3200041,10.2699931 98.5099922,9.58 100.07,9.58 C100.850004,9.58 101.509997,9.71499865 102.05,9.985 C102.590003,10.2550014 103.029998,10.589998 103.37,10.99 L102.98,12.49 C102.639998,12.0299977 102.230002,11.6300017 101.75,11.29 C101.269998,10.9499983 100.710003,10.78 100.07,10.78 C98.9099942,10.78 98.0550027,11.3599942 97.505,12.52 C96.9549972,13.6800058 96.68,15.3299893 96.68,17.47 C96.68,19.5500104 96.9499973,21.1699942 97.49,22.33 C98.0300027,23.4900058 98.8899941,24.07 100.07,24.07 Z M110.03,24.07 C110.510002,24.07 110.934998,23.9900008 111.305,23.83 C111.675002,23.6699992 111.989999,23.4800011 112.25,23.26 C112.550002,23.0399989 112.809999,22.7700016 113.03,22.45 L113.48,23.62 C113.259999,23.9400016 112.980002,24.2199988 112.64,24.46 C112.359999,24.6800011 111.995002,24.8749992 111.545,25.045 C111.094998,25.2150009 110.580003,25.3 110,25.3 C108.479992,25.3 107.305004,24.6150069 106.475,23.245 C105.644996,21.8749932 105.23,19.9500124 105.23,17.47 C105.23,14.9699875 105.639996,13.0300069 106.46,11.65 C107.280004,10.2699931 108.469992,9.58 110.03,9.58 C110.810004,9.58 111.469997,9.71499865 112.01,9.985 C112.550003,10.2550014 112.989998,10.589998 113.33,10.99 L112.94,12.49 C112.599998,12.0299977 112.190002,11.6300017 111.71,11.29 C111.229998,10.9499983 110.670003,10.78 110.03,10.78 C108.869994,10.78 108.015003,11.3599942 107.465,12.52 C106.914997,13.6800058 106.64,15.3299893 106.64,17.47 C106.64,19.5500104 106.909997,21.1699942 107.45,22.33 C107.990003,23.4900058 108.849994,24.07 110.03,24.07 Z M118.73,24.16 C119.430004,24.16 120.024998,23.8700029 120.515,23.29 C121.005002,22.7099971 121.389999,22.0100041 121.67,21.19 L121.67,17.02 L120.05,17.02 C118.789994,17.02 117.860003,17.319997 117.26,17.92 C116.659997,18.520003 116.36,19.4799934 116.36,20.8 C116.36,21.8800054 116.574998,22.7099971 117.005,23.29 C117.435002,23.8700029 118.009996,24.16 118.73,24.16 Z M122.09,25 C122.03,24.799999 121.965,24.5450015 121.895,24.235 C121.825,23.9249985 121.77,23.5000027 121.73,22.96 C121.369998,23.6800036 120.920003,24.2499979 120.38,24.67 C119.839997,25.0900021 119.190004,25.3 118.43,25.3 C117.409995,25.3 116.580003,24.9150038 115.94,24.145 C115.299997,23.3749962 114.98,22.3000069 114.98,20.92 C114.98,19.2999919 115.409996,18.0750041 116.27,17.245 C117.130004,16.4149958 118.379992,16 120.02,16 L121.67,16 L121.67,14.11 C121.67,12.9499942 121.460002,12.1100026 121.04,11.59 C120.619998,11.0699974 119.990004,10.81 119.15,10.81 C118.509997,10.81 117.910003,10.9549985 117.35,11.245 C116.789997,11.5350014 116.330002,11.9399974 115.97,12.46 L115.58,11.11 C115.880002,10.709998 116.334997,10.3550015 116.945,10.045 C117.555003,9.73499845 118.289996,9.58 119.15,9.58 C120.410006,9.58 121.374997,9.93499645 122.045,10.645 C122.715003,11.3550036 123.05,12.4599925 123.05,13.96 L123.05,22.21 C123.05,22.7300026 123.08,23.2549973 123.14,23.785 C123.2,24.3150026 123.28,24.7199986 123.38,25 L122.09,25 Z"/>
    <path fill="#F00" d="M8.93,16.78 L5.27,25 L2.6,25 L6.62,16.21 C5.6799953,15.7299976 4.9200029,15.0250047 4.34,14.095 C3.7599971,13.1649954 3.47,11.900008 3.47,10.3 C3.47,9.1799944 3.63499835,8.19500425 3.965,7.345 C4.29500165,6.49499575 4.74499715,5.7900028 5.315,5.23 C5.88500285,4.6699972 6.5499962,4.2500014 7.31,3.97 C8.0700038,3.6899986 8.8699958,3.55 9.71,3.55 L13.16,3.55 L13.16,25 L10.85,25 L10.85,16.78 L8.93,16.78 Z M10.85,5.5 L9.62,5.5 C9.1599977,5.5 8.7100022,5.58499915 8.27,5.755 C7.8299978,5.92500085 7.4400017,6.19499815 7.1,6.565 C6.7599983,6.93500185 6.48500105,7.42499695 6.275,8.035 C6.06499895,8.64500305 5.96,9.3999955 5.96,10.3 C5.96,11.1600043 6.05499905,11.8799971 6.245,12.46 C6.43500095,13.0400029 6.69499835,13.5099982 7.025,13.87 C7.35500165,14.2300018 7.74499775,14.4849993 8.195,14.635 C8.64500225,14.7850008 9.1199975,14.86 9.62,14.86 L10.85,14.86 L10.85,5.5 Z"/>
  </g>
</svg>
