<?xml version="1.0" encoding="utf-8"?>
<!-- Generator: Adobe Illustrator 16.0.0, SVG Export Plug-In . SVG Version: 6.00 Build 0)  -->
<!DOCTYPE svg PUBLIC "-//W3C//DTD SVG 1.1//EN" "http://www.w3.org/Graphics/SVG/1.1/DTD/svg11.dtd">
<svg version="1.1" id="Слой_1" xmlns="http://www.w3.org/2000/svg" xmlns:xlink="http://www.w3.org/1999/xlink" x="0px" y="0px"
	 width="42px" height="42px" viewBox="0 0 61.039 61.039" enable-background="new 0 0 61.039 61.039" xml:space="preserve">
<g>

		<linearGradient id="SVGID_1_" gradientUnits="userSpaceOnUse" x1="-280.0059" y1="801.7295" x2="-280.0059" y2="814.957" gradientTransform="matrix(4.6146 0 0 4.6146 1322.6371 -3699.6611)">
		<stop  offset="0" style="stop-color:#37b672"/>
		<stop  offset="1" style="stop-color:#1a894e"/>
	</linearGradient>
	<path fill="url(#SVGID_1_)" d="M4.495,0h52.049c2.46,0,4.495,2.035,4.495,4.495v52.049c0,2.46-2.035,4.495-4.495,4.495H4.495
		C2.035,61.039,0,59.004,0,56.544V4.495C0,2.035,2.035,0,4.495,0z"/>
	<path opacity="0.25" fill="#FFFFFF" enable-background="new    " d="M47.791,61.039h-8.754L18.501,0h4.968L47.791,61.039z
		 M33.69,61.039h-9.7L12.255,0h5.062L33.69,61.039z M6.435,0h4.685l7.76,61.039h-8.28L6.435,0z"/>
	<path fill="#FFFFFF" d="M33.595,21.766v19.731l5.678,1.704v6.387l-5.678-1.703v13.154h-6.151v-15l-5.678-1.703v-6.388l5.678,1.704
		V21.766H11.356v-6.151h16.088V0h6.151v15.615h16.088v6.151H33.595z"/>
</g>
</svg>
