<?xml version="1.0" encoding="UTF-8"?>
<svg width="24px" height="23px" viewBox="0 0 24 23" version="1.1" xmlns="http://www.w3.org/2000/svg" xmlns:xlink="http://www.w3.org/1999/xlink">
    <!-- Generator: Sketch 51.3 (57544) - http://www.bohemiancoding.com/sketch -->
    <title>Combined Shape</title>
    <desc>Created with Sketch.</desc>
    <defs></defs>
    <g id="Portal_glavnaja" stroke="none" stroke-width="1" fill="none" fill-rule="evenodd">
        <g id="Pravjizn-Doroga-Home" transform="translate(-926.000000, -4807.000000)" fill="#9B9B9B">
            <g id="5" transform="translate(0.000000, 4063.000000)">
                <g id="notification" transform="translate(493.000000, 744.000000)">
                    <path d="M433.88809,10 C433.88809,5.68182598 436.35122,1.93894684 439.949131,0.0997124353 L439.949132,2.43940512 C437.512622,4.07035334 435.908437,6.84783799 435.908437,10 L433.88809,10 Z M456.11191,10 L454.091563,10 C454.091563,6.84783799 452.487378,4.07035334 450.050868,2.43940512 L450.050868,0.099707379 C453.64878,1.93894684 456.11191,5.68182598 456.11191,10 Z M445,22.5 C443.89,22.5 443,21.6 443,20.5 L447,20.5 C447,21.6 446.1,22.5 445,22.5 Z M451,16.5 L453,18.5 L453,19.5 L437,19.5 L437,18.5 L439,16.5 L439,11.5 C439,8.42 440.63,5.86 443.5,5.18 L443.5,4.5 C443.5,3.67 444.17,3 445,3 C445.83,3 446.5,3.67 446.5,4.5 L446.5,5.18 C449.36,5.86 451,8.43 451,11.5 L451,16.5 Z" id="Combined-Shape"></path>
                </g>
            </g>
        </g>
    </g>
</svg>
