<?xml version="1.0" encoding="UTF-8"?>
<svg width="16px" height="20px" viewBox="0 0 16 20" version="1.1" xmlns="http://www.w3.org/2000/svg" xmlns:xlink="http://www.w3.org/1999/xlink">
    <!-- Generator: Sketch 51.3 (57544) - http://www.bohemiancoding.com/sketch -->
    <title>notification_icon</title>
    <desc>Created with Sketch.</desc>
    <defs></defs>
    <g id="Portal_glavnaja" stroke="none" stroke-width="1" fill="none" fill-rule="evenodd">
        <g id="Pravjizn-Doroga-Home" transform="translate(-930.000000, -4810.000000)" fill="#9B9B9B">
            <g id="5" transform="translate(0.000000, 4063.000000)">
                <g id="notification" transform="translate(493.000000, 747.000000)">
                    <path d="M445,19.5 C446.1,19.5 447,18.6 447,17.5 L443,17.5 C443,18.6 443.89,19.5 445,19.5 L445,19.5 Z M451,13.5 L451,8.5 C451,5.43 449.36,2.86 446.5,2.18 L446.5,1.5 C446.5,0.67 445.83,0 445,0 C444.17,0 443.5,0.67 443.5,1.5 L443.5,2.18 C440.63,2.86 439,5.42 439,8.5 L439,13.5 L437,15.5 L437,16.5 L453,16.5 L453,15.5 L451,13.5 L451,13.5 Z" id="notification_icon"></path>
                </g>
            </g>
        </g>
    </g>
</svg>