<?xml version="1.0" encoding="UTF-8"?>
<svg width="13px" height="20px" viewBox="0 0 13 20" version="1.1" xmlns="http://www.w3.org/2000/svg" xmlns:xlink="http://www.w3.org/1999/xlink">
    <!-- Generator: Sketch 51.3 (57544) - http://www.bohemiancoding.com/sketch -->
    <title>odnoklassinki_share</title>
    <desc>Created with Sketch.</desc>
    <defs></defs>
    <g id="Bratstvo_trezvosty" stroke="none" stroke-width="1" fill="none" fill-rule="evenodd">
        <g id="way_to_help" transform="translate(-952.000000, -2133.000000)" fill="#FFFFFF" fill-rule="nonzero">
            <g id="Group-18-Copy-2" transform="translate(198.000000, 1706.000000)">
                <g id="Group-7" transform="translate(472.000000, 347.000000)">
                    <path d="M288.244245,90.8232066 C291.232975,90.8232066 293.655868,88.4003535 293.655868,85.4115838 C293.655868,82.4228141 291.233014,80 288.244245,80 C285.255475,80 282.832661,82.4228532 282.832661,85.4116228 C282.836329,88.3988314 285.257036,90.8195382 288.244245,90.8232066 Z M288.244245,82.4976661 C289.853561,82.4976661 291.158202,83.8022673 291.158202,85.4116228 C291.158202,87.0209783 289.8536,88.3255796 288.244245,88.3255796 C286.634889,88.3255796 285.330288,87.0209783 285.330288,85.4116228 C285.330288,83.8022673 286.634928,82.4976661 288.244245,82.4976661 Z M293.545151,93.3874901 C292.79187,93.8883502 291.971387,94.2799374 291.108326,94.5505439 C290.960691,94.5955019 290.80888,94.6379623 290.652931,94.6779249 L293.164764,97.1356283 C293.178618,97.1489752 293.192238,97.1625563 293.205624,97.1763715 C293.845456,97.8368871 293.828675,98.8910583 293.168159,99.5308901 C292.507644,100.170722 291.453472,100.153941 290.813641,99.4934251 L288.244362,96.8342303 L285.680078,99.4884298 C285.666809,99.502245 285.653306,99.515787 285.639569,99.5291339 C284.979522,100.169512 283.92539,100.15355 283.285012,99.4935422 C282.644634,98.8334949 282.660595,97.7793627 283.320603,97.1389846 L285.836573,94.6787835 C285.680586,94.6399136 285.52936,94.5977264 285.382817,94.5522221 C284.51882,94.2805619 283.697556,93.8881551 282.943417,93.3866316 C282.355607,92.9989469 282.001367,92.342373 282.000119,91.6382653 C281.992821,91.0540456 282.322786,90.517945 282.847647,90.2612318 C283.387533,89.9937473 284.032204,90.0543548 284.512771,90.4177652 C286.736591,92.0390236 289.752796,92.0390236 291.976616,90.4177652 C292.456442,90.0524425 293.102244,89.991757 293.64174,90.2612318 C294.166835,90.517984 294.496644,91.05467 294.488449,91.6391239 C294.487629,92.3433486 294.133273,93.0001177 293.545151,93.3874901 Z" id="odnoklassinki_share"></path>
                </g>
            </g>
        </g>
    </g>
</svg>