<?xml version="1.0" encoding="UTF-8"?>
<svg width="20px" height="16px" viewBox="0 0 20 16" version="1.1" xmlns="http://www.w3.org/2000/svg" xmlns:xlink="http://www.w3.org/1999/xlink">
    <!-- Generator: Sketch 51.3 (57544) - http://www.bohemiancoding.com/sketch -->
    <title>twitter_share</title>
    <desc>Created with Sketch.</desc>
    <defs></defs>
    <g id="Bratstvo_trezvosty" stroke="none" stroke-width="1" fill="none" fill-rule="evenodd">
        <g id="way_to_help" transform="translate(-1028.000000, -2135.000000)" fill="#FFFFFF" fill-rule="nonzero">
            <path d="M1048,2136.89305 C1047.26389,2137.21429 1046.47405,2137.43216 1045.64418,2137.52942 C1046.49153,2137.02968 1047.14016,2136.23702 1047.44758,2135.2954 C1046.65274,2135.75819 1045.77539,2136.09424 1044.84055,2136.27641 C1044.09195,2135.48989 1043.02715,2135 1041.8461,2135 C1039.58028,2135 1037.74312,2136.80937 1037.74312,2139.03969 C1037.74312,2139.35601 1037.77936,2139.66496 1037.84936,2139.96039 C1034.44001,2139.79174 1031.41684,2138.18301 1029.39347,2135.7385 C1029.03977,2136.33425 1028.83856,2137.02842 1028.83856,2137.76943 C1028.83856,2139.1714 1029.56343,2140.40841 1030.66324,2141.13213 C1029.99085,2141.10999 1029.35847,2140.92782 1028.80484,2140.62502 L1028.80484,2140.67549 C1028.80484,2142.63255 1030.21958,2144.2659 1032.09546,2144.63764 C1031.75177,2144.72873 1031.38935,2144.7792 1031.01442,2144.7792 C1030.74948,2144.7792 1030.49327,2144.75335 1030.24206,2144.70411 C1030.76445,2146.31039 1032.27919,2147.47846 1034.07387,2147.51049 C1032.67037,2148.59365 1030.90069,2149.2374 1028.97856,2149.2374 C1028.64739,2149.2374 1028.32118,2149.2177 1028,2149.182 C1029.81592,2150.33041 1031.97177,2151 1034.28883,2151 C1041.83617,2151 1045.96166,2144.84321 1045.96166,2139.50374 L1045.94791,2138.98063 C1046.75398,2138.41439 1047.45134,2137.70297 1048,2136.89305 Z" id="twitter_share"></path>
        </g>
    </g>
</svg>