<?xml version="1.0" encoding="UTF-8"?>
<svg width="20px" height="12px" viewBox="0 0 20 12" version="1.1" xmlns="http://www.w3.org/2000/svg" xmlns:xlink="http://www.w3.org/1999/xlink">
    <!-- Generator: Sketch 51.3 (57544) - http://www.bohemiancoding.com/sketch -->
    <title>vk_login</title>
    <desc>Created with Sketch.</desc>
    <defs></defs>
    <g id="Bratstvo_trezvosty" stroke="none" stroke-width="1" fill="none" fill-rule="evenodd">
        <g id="Pravjizn-trezvost" transform="translate(-889.000000, -10979.000000)" fill="#4695ED" fill-rule="nonzero">
            <g id="Group-12" transform="translate(0.000000, 10371.000000)">
                <g id="btn-copy" transform="translate(807.000000, 584.000000)">
                    <g id="Group-9" transform="translate(82.000000, 22.000000)">
                        <path d="M17.2128498,9.19661005 C17.8762748,9.84432992 18.5764983,10.4537399 19.1715174,11.1667772 C19.4343641,11.4836388 19.6832141,11.81062 19.8735808,12.1783425 C20.1433272,12.7010788 19.8990113,13.2763187 19.43029,13.3075318 L16.5166348,13.3062175 C15.7651562,13.3685779 15.1656687,13.0660414 14.6615945,12.5522419 C14.2581906,12.1413469 13.8846198,11.7040357 13.4967238,11.2792755 C13.3377016,11.1056653 13.1712539,10.9423061 12.9724104,10.8131827 C12.5746577,10.5550016 12.2294086,10.6340527 12.002112,11.0488904 C11.7706098,11.470825 11.7181062,11.938035 11.69537,12.4082676 C11.6641569,13.0943631 11.4567709,13.2747416 10.767587,13.3061518 C9.29472572,13.375609 7.8969072,13.1527808 6.598379,12.409779 C5.45355039,11.7547651 4.5657858,10.8300706 3.79308234,9.78321807 C2.28861379,7.74477654 1.13649118,5.50486304 0.101006776,3.2021949 C-0.132072497,2.68340131 0.0383835596,2.40491528 0.610797867,2.39505853 C1.56131709,2.37659355 2.51170489,2.37790778 3.46334121,2.39374429 C3.84966009,2.3993955 4.10540988,2.62097523 4.25457536,2.98593781 C4.76883485,4.25042737 5.39808974,5.45347651 6.18794395,6.56860346 C6.39828698,6.86548876 6.61276986,7.16237406 6.91819767,7.37133715 C7.25608705,7.60270792 7.51334822,7.52602241 7.67230473,7.14962599 C7.77317214,6.91096123 7.81733037,6.6538972 7.84006661,6.39827882 C7.91537218,5.51885962 7.92529464,4.64095179 7.79321419,3.76462103 C7.712126,3.21770285 7.40406972,2.8636484 6.85833435,2.76015253 C6.57984831,2.70738607 6.62131237,2.60375877 6.75615271,2.44480226 C6.99034908,2.17065319 7.21061458,2 7.64969992,2 L10.9425771,2 C11.4609764,2.10231306 11.5761033,2.3351952 11.6470719,2.85681439 L11.6498975,6.51452276 C11.6442463,6.7164547 11.7507649,7.31567937 12.1144789,7.44933689 C12.4055816,7.54448738 12.5974597,7.31160524 12.7721213,7.12702118 C13.5605298,6.29024885 14.1232188,5.30135401 14.625913,4.27736915 C14.8490041,3.82711282 15.0408165,3.35950862 15.2267148,2.89229869 C15.3644464,2.54560395 15.5805721,2.37501647 15.9710965,2.38257331 L19.1403044,2.38539891 C19.2342721,2.38539891 19.3293568,2.38677886 19.4203675,2.40235252 C19.9544062,2.49336318 20.1007461,2.72309115 19.9358098,3.24457892 C19.6759202,4.06275485 19.1702689,4.74457908 18.6758543,5.42955747 C18.1473354,6.16086258 17.5820837,6.86713155 17.0579674,7.60277363 C16.5764324,8.27454397 16.6146766,8.61315618 17.2128498,9.19661005 Z" id="vk_login"></path>
                    </g>
                </g>
            </g>
        </g>
    </g>
</svg>