<?xml version="1.0" encoding="UTF-8"?>
<svg width="20px" height="11px" viewBox="0 0 20 11" version="1.1" xmlns="http://www.w3.org/2000/svg" xmlns:xlink="http://www.w3.org/1999/xlink">
    <!-- Generator: Sketch 51.3 (57544) - http://www.bohemiancoding.com/sketch -->
    <title>vk_share</title>
    <desc>Created with Sketch.</desc>
    <defs></defs>
    <g id="Bratstvo_trezvosty" stroke="none" stroke-width="1" fill="none" fill-rule="evenodd">
        <g id="way_to_help" transform="translate(-788.000000, -2137.000000)" fill="#FFFFFF" fill-rule="nonzero">
            <path d="M805.21285,2143.9943 C805.876275,2144.62381 806.576498,2145.21609 807.171517,2145.90908 C807.434364,2146.21704 807.683214,2146.53483 807.873581,2146.89221 C808.143327,2147.40025 807.899011,2147.95932 807.43029,2147.98966 L804.516635,2147.98838 C803.765156,2148.04899 803.165669,2147.75496 802.661594,2147.2556 C802.258191,2146.85626 801.88462,2146.43124 801.496724,2146.01842 C801.337702,2145.84969 801.171254,2145.69092 800.97241,2145.56543 C800.574658,2145.31451 800.229409,2145.39133 800.002112,2145.79451 C799.77061,2146.20458 799.718106,2146.65866 799.69537,2147.11567 C799.664157,2147.78248 799.456771,2147.95779 798.767587,2147.98832 C797.294726,2148.05582 795.896907,2147.83926 794.598379,2147.11714 C793.45355,2146.48054 792.565786,2145.58184 791.793082,2144.56442 C790.288614,2142.58328 789.136491,2140.40634 788.101007,2138.1684 C787.867928,2137.66419 788.038384,2137.39353 788.610798,2137.38395 C789.561317,2137.36601 790.511705,2137.36728 791.463341,2137.38268 C791.84966,2137.38817 792.10541,2137.60352 792.254575,2137.95822 C792.768835,2139.18716 793.39809,2140.35639 794.187944,2141.44017 C794.398287,2141.72871 794.61277,2142.01725 794.918198,2142.22034 C795.256087,2142.44521 795.513348,2142.37068 795.672305,2142.00486 C795.773172,2141.77291 795.81733,2141.52307 795.840067,2141.27464 C795.915372,2140.41994 795.925295,2139.56671 795.793214,2138.71501 C795.712126,2138.18347 795.40407,2137.83937 794.858334,2137.73878 C794.579848,2137.6875 794.621312,2137.58679 794.756153,2137.4323 C794.990349,2137.16586 795.210615,2137 795.6497,2137 L798.942577,2137 C799.460976,2137.09944 799.576103,2137.32577 799.647072,2137.83273 L799.649897,2141.38761 C799.644246,2141.58387 799.750765,2142.16625 800.114479,2142.29615 C800.405582,2142.38862 800.59746,2142.16229 800.772121,2141.98289 C801.56053,2141.16964 802.123219,2140.20855 802.625913,2139.21335 C802.849004,2138.77575 803.040816,2138.32129 803.226715,2137.86721 C803.364446,2137.53027 803.580572,2137.36447 803.971097,2137.37182 L807.140304,2137.37456 C807.234272,2137.37456 807.329357,2137.37591 807.420367,2137.39104 C807.954406,2137.47949 808.100746,2137.70276 807.93581,2138.20959 C807.67592,2139.00477 807.170269,2139.66742 806.675854,2140.33315 C806.147335,2141.04389 805.582084,2141.73031 805.057967,2142.44527 C804.576432,2143.09816 804.614677,2143.42725 805.21285,2143.9943 Z" id="vk_share"></path>
        </g>
    </g>
</svg>